<svg xmlns="http://www.w3.org/2000/svg" xmlns:xlink="http://www.w3.org/1999/xlink" contentStyleType="text/css" data-diagram-type="CLASS" height="555px" preserveAspectRatio="none" style="width:146px;height:555px;background:#FFFFFF;" version="1.1" viewBox="0 0 146 555" width="146px" zoomAndPan="magnify"><defs/><g><!--class users--><g class="entity" data-entity="users" data-source-line="6" data-uid="ent0002" id="entity_users"><rect fill="#F1F1F1" height="145.7813" rx="2.5" ry="2.5" style="stroke:#181818;stroke-width:0.5;" width="119.3311" x="13.54" y="7"/><ellipse cx="50.8154" cy="23" fill="#ADD1B2" rx="11" ry="11" style="stroke:#181818;stroke-width:1;"/><path d="M54.9248,29 L47.2061,29 L47.2061,16.6094 L54.9248,16.6094 L54.9248,18.7656 L49.6592,18.7656 L49.6592,21.4375 L54.4248,21.4375 L54.4248,23.5938 L49.6592,23.5938 L49.6592,26.8438 L54.9248,26.8438 L54.9248,29 Z " fill="#000000"/><text fill="#000000" font-family="sans-serif" font-size="14" lengthAdjust="spacing" textLength="37.8301" x="69.7655" y="27.8467">users</text><line style="stroke:#181818;stroke-width:0.5;" x1="14.54" x2="131.8711" y1="39" y2="39"/><ellipse cx="24.54" cy="52.6484" fill="#000000" rx="3" ry="3" style="stroke:#000000;stroke-width:1;"/><text fill="#000000" font-family="sans-serif" font-size="14" lengthAdjust="spacing" textLength="44.0166" x="33.54" y="55.9951">id : PK</text><line style="stroke:#181818;stroke-width:1;" x1="14.54" x2="131.8711" y1="63.2969" y2="63.2969"/><text fill="#000000" font-family="sans-serif" font-size="14" lengthAdjust="spacing" textLength="39.7031" x="19.54" y="80.292">name</text><text fill="#000000" font-family="sans-serif" font-size="14" lengthAdjust="spacing" textLength="38.6094" x="19.54" y="96.5889">email</text><text fill="#000000" font-family="sans-serif" font-size="14" lengthAdjust="spacing" textLength="107.3311" x="19.54" y="112.8857">password_hash</text><text fill="#000000" font-family="sans-serif" font-size="14" lengthAdjust="spacing" textLength="26.8242" x="19.54" y="129.1826">role</text><text fill="#000000" font-family="sans-serif" font-size="14" lengthAdjust="spacing" textLength="74.7031" x="19.54" y="145.4795">created_at</text></g><!--class accounts--><g class="entity" data-entity="accounts" data-source-line="16" data-uid="ent0003" id="entity_accounts"><rect fill="#F1F1F1" height="129.4844" rx="2.5" ry="2.5" style="stroke:#181818;stroke-width:0.5;" width="107.1631" x="19.62" y="212.78"/><ellipse cx="40.0626" cy="228.78" fill="#ADD1B2" rx="11" ry="11" style="stroke:#181818;stroke-width:1;"/><path d="M44.172,234.78 L36.4533,234.78 L36.4533,222.3894 L44.172,222.3894 L44.172,224.5456 L38.9064,224.5456 L38.9064,227.2175 L43.672,227.2175 L43.672,229.3737 L38.9064,229.3737 L38.9064,232.6237 L44.172,232.6237 L44.172,234.78 Z " fill="#000000"/><text fill="#000000" font-family="sans-serif" font-size="14" lengthAdjust="spacing" textLength="63.0684" x="55.2721" y="233.6267">accounts</text><line style="stroke:#181818;stroke-width:0.5;" x1="20.62" x2="125.7831" y1="244.78" y2="244.78"/><ellipse cx="30.62" cy="258.4284" fill="#000000" rx="3" ry="3" style="stroke:#000000;stroke-width:1;"/><text fill="#000000" font-family="sans-serif" font-size="14" lengthAdjust="spacing" textLength="44.0166" x="39.62" y="261.7751">id : PK</text><line style="stroke:#181818;stroke-width:1;" x1="20.62" x2="125.7831" y1="269.0769" y2="269.0769"/><ellipse cx="30.62" cy="282.7253" fill="#000000" rx="3" ry="3" style="stroke:#000000;stroke-width:1;"/><text fill="#000000" font-family="sans-serif" font-size="14" lengthAdjust="spacing" textLength="81.1631" x="39.62" y="286.072">user_id : FK</text><text fill="#000000" font-family="sans-serif" font-size="14" lengthAdjust="spacing" textLength="31.2744" x="39.62" y="302.3689">type</text><text fill="#000000" font-family="sans-serif" font-size="14" lengthAdjust="spacing" textLength="55.1182" x="39.62" y="318.6657">balance</text><text fill="#000000" font-family="sans-serif" font-size="14" lengthAdjust="spacing" textLength="74.7031" x="39.62" y="334.9626">created_at</text></g><!--class transactions--><g class="entity" data-entity="transactions" data-source-line="25" data-uid="ent0004" id="entity_transactions"><rect fill="#F1F1F1" height="145.7813" rx="2.5" ry="2.5" style="stroke:#181818;stroke-width:0.5;" width="132.4014" x="7" y="402.27"/><ellipse cx="28.3101" cy="418.27" fill="#ADD1B2" rx="11" ry="11" style="stroke:#181818;stroke-width:1;"/><path d="M32.4195,424.27 L24.7007,424.27 L24.7007,411.8794 L32.4195,411.8794 L32.4195,414.0356 L27.1539,414.0356 L27.1539,416.7075 L31.9195,416.7075 L31.9195,418.8638 L27.1539,418.8638 L27.1539,422.1138 L32.4195,422.1138 L32.4195,424.27 Z " fill="#000000"/><text fill="#000000" font-family="sans-serif" font-size="14" lengthAdjust="spacing" textLength="86.3789" x="43.7124" y="423.1167">transactions</text><line style="stroke:#181818;stroke-width:0.5;" x1="8" x2="138.4014" y1="434.27" y2="434.27"/><ellipse cx="18" cy="447.9184" fill="#000000" rx="3" ry="3" style="stroke:#000000;stroke-width:1;"/><text fill="#000000" font-family="sans-serif" font-size="14" lengthAdjust="spacing" textLength="44.0166" x="27" y="451.2651">id : PK</text><line style="stroke:#181818;stroke-width:1;" x1="8" x2="138.4014" y1="458.5669" y2="458.5669"/><ellipse cx="18" cy="472.2153" fill="#000000" rx="3" ry="3" style="stroke:#000000;stroke-width:1;"/><text fill="#000000" font-family="sans-serif" font-size="14" lengthAdjust="spacing" textLength="106.4014" x="27" y="475.562">account_id : FK</text><text fill="#000000" font-family="sans-serif" font-size="14" lengthAdjust="spacing" textLength="31.2744" x="27" y="491.8589">type</text><text fill="#000000" font-family="sans-serif" font-size="14" lengthAdjust="spacing" textLength="54.0176" x="27" y="508.1557">amount</text><text fill="#000000" font-family="sans-serif" font-size="14" lengthAdjust="spacing" textLength="75.5166" x="27" y="524.4526">timestamp</text><text fill="#000000" font-family="sans-serif" font-size="14" lengthAdjust="spacing" textLength="77.8408" x="27" y="540.7495">description</text></g><!--link users to accounts--><g class="link" data-entity-1="users" data-entity-2="accounts" data-source-line="38" data-uid="lnk5" id="link_users_accounts"><path codeLine="38" d="M73.2,161.2 C73.2,180.65 73.2,175.51 73.2,194.48" fill="none" id="users-accounts" style="stroke:#181818;stroke-width:1;"/><line style="stroke:#181818;stroke-width:1;" x1="69.2" x2="77.2" y1="157.2" y2="157.2"/><line style="stroke:#181818;stroke-width:1;" x1="69.2" x2="77.2" y1="160.2" y2="160.2"/><line style="stroke:#181818;stroke-width:1;" x1="73.2" x2="73.2" y1="161.2" y2="153.2"/><line style="stroke:#181818;stroke-width:1;" x1="73.2" x2="79.2" y1="204.48" y2="212.48"/><line style="stroke:#181818;stroke-width:1;" x1="73.2" x2="67.2" y1="204.48" y2="212.48"/><line style="stroke:#181818;stroke-width:1;" x1="73.2" x2="73.2" y1="204.48" y2="212.48"/><ellipse cx="73.2" cy="198.48" fill="none" rx="4" ry="4" style="stroke:#181818;stroke-width:1;"/><text fill="#000000" font-family="sans-serif" font-size="13" lengthAdjust="spacing" textLength="22.9785" x="50.2" y="178.9069">has</text></g><!--link accounts to transactions--><g class="link" data-entity-1="accounts" data-entity-2="transactions" data-source-line="41" data-uid="lnk6" id="link_accounts_transactions"><path codeLine="41" d="M73.2,350.51 C73.2,369.53 73.2,364.44 73.2,383.93" fill="none" id="accounts-transactions" style="stroke:#181818;stroke-width:1;"/><line style="stroke:#181818;stroke-width:1;" x1="69.2" x2="77.2" y1="346.51" y2="346.51"/><line style="stroke:#181818;stroke-width:1;" x1="69.2" x2="77.2" y1="349.51" y2="349.51"/><line style="stroke:#181818;stroke-width:1;" x1="73.2" x2="73.2" y1="350.51" y2="342.51"/><line style="stroke:#181818;stroke-width:1;" x1="73.2" x2="79.2" y1="393.93" y2="401.93"/><line style="stroke:#181818;stroke-width:1;" x1="73.2" x2="67.2" y1="393.93" y2="401.93"/><line style="stroke:#181818;stroke-width:1;" x1="73.2" x2="73.2" y1="393.93" y2="401.93"/><ellipse cx="73.2" cy="387.93" fill="none" rx="4" ry="4" style="stroke:#181818;stroke-width:1;"/><text fill="#000000" font-family="sans-serif" font-size="13" lengthAdjust="spacing" textLength="26.5903" x="46.2" y="368.2869">logs</text></g><!--SRC=[VL8zRm8n3DtpAxmT8DtG5Oa1jMMfMbLjcP796IxYBZx5fWX1_til2L0g8RB4d-_5podWanHaupnq6B0bfI2muW085IekKGWQves9DQa46kT9znq11wtPc08camayUtMwXoTQEU_KiPSODePoV2iH-62WFoDNmHZUNv9JbkdoFNSog4NN9Aj3aHs7Qb6Zr2aIkCb5DX0gLGjKytEXG6jvw_KUooW-Ov4Iivo8WoHZYGrwUmTU0tf1cqUxGt5wncqMR6CknrnBejXsoQj8R71TH8-SMTCFQZ3nrQuJ6Cp5-JKy1juL0ZDcXJVML33CMXSmXNa_8LZqKEDtlo8VrmGj1uBfMP_10oZ3A_hzqEIz78zboOS_1STzjoGyVswxZVbrBSerxWNg1FrFlN7_fTRo2m00]--></g></svg>