<svg xmlns="http://www.w3.org/2000/svg" xmlns:xlink="http://www.w3.org/1999/xlink" contentStyleType="text/css" data-diagram-type="SEQUENCE" height="510px" preserveAspectRatio="none" style="width:618px;height:510px;background:#FFFFFF;" version="1.1" viewBox="0 0 618 510" width="618px" zoomAndPan="magnify"><title>Deposit Transaction Sequence Diagram</title><defs/><g><text fill="#000000" font-family="sans-serif" font-size="14" font-weight="bold" lengthAdjust="spacing" textLength="311.876" x="152.0867" y="27.9951">Deposit Transaction Sequence Diagram</text><g><title>AuthService</title><rect fill="#FFFFFF" height="87.3984" style="stroke:#181818;stroke-width:1;" width="10" x="208.877" y="149.7266"/></g><g><title>SupabaseClient</title><rect fill="#FFFFFF" height="29.1328" style="stroke:#181818;stroke-width:1;" width="10" x="350.9668" y="178.8594"/></g><g><title>SupabaseClient</title><rect fill="#FFFFFF" height="87.3984" style="stroke:#181818;stroke-width:1;" width="10" x="350.9668" y="295.3906"/></g><g><title>BankingService</title><rect fill="#FFFFFF" height="145.6641" style="stroke:#181818;stroke-width:1;" width="10" x="545.772" y="266.2578"/></g><g><title>Customer</title><rect fill="#000000" fill-opacity="0.00000" height="311.3281" width="8" x="38.002" y="118.5938"/><line style="stroke:#181818;stroke-width:0.5;stroke-dasharray:5,5;" x1="42" x2="42" y1="118.5938" y2="429.9219"/></g><g><title>AuthService</title><rect fill="#000000" fill-opacity="0.00000" height="311.3281" width="8" x="209.877" y="118.5938"/><line style="stroke:#181818;stroke-width:0.5;stroke-dasharray:5,5;" x1="213.6001" x2="213.6001" y1="118.5938" y2="429.9219"/></g><g><title>SupabaseClient</title><rect fill="#000000" fill-opacity="0.00000" height="311.3281" width="8" x="351.9668" y="118.5938"/><line style="stroke:#181818;stroke-width:0.5;stroke-dasharray:5,5;" x1="355.4023" x2="355.4023" y1="118.5938" y2="429.9219"/></g><g><title>BankingService</title><rect fill="#000000" fill-opacity="0.00000" height="311.3281" width="8" x="546.772" y="118.5938"/><line style="stroke:#181818;stroke-width:0.5;stroke-dasharray:5,5;" x1="550.4946" x2="550.4946" y1="118.5938" y2="429.9219"/></g><g class="participant participant-head" data-participant="Customer"><text fill="#000000" font-family="sans-serif" font-size="14" lengthAdjust="spacing" textLength="68.0039" x="5" y="115.292">Customer</text><ellipse cx="42.002" cy="50.7969" fill="#E2E2F0" rx="8" ry="8" style="stroke:#181818;stroke-width:0.5;"/><path d="M42.002,58.7969 L42.002,85.7969 M29.002,66.7969 L55.002,66.7969 M42.002,85.7969 L29.002,100.7969 M42.002,85.7969 L55.002,100.7969" fill="none" style="stroke:#181818;stroke-width:0.5;"/></g><g class="participant participant-tail" data-participant="Customer"><text fill="#000000" font-family="sans-serif" font-size="14" lengthAdjust="spacing" textLength="68.0039" x="5" y="441.917">Customer</text><ellipse cx="42.002" cy="453.7188" fill="#E2E2F0" rx="8" ry="8" style="stroke:#181818;stroke-width:0.5;"/><path d="M42.002,461.7188 L42.002,488.7188 M29.002,469.7188 L55.002,469.7188 M42.002,488.7188 L29.002,503.7188 M42.002,488.7188 L55.002,503.7188" fill="none" style="stroke:#181818;stroke-width:0.5;"/></g><g class="participant participant-head" data-participant="AuthService"><rect fill="#E2E2F0" height="30.2969" rx="2.5" ry="2.5" style="stroke:#181818;stroke-width:0.5;" width="98.5537" x="164.6001" y="87.2969"/><text fill="#000000" font-family="sans-serif" font-size="14" lengthAdjust="spacing" textLength="84.5537" x="171.6001" y="107.292">AuthService</text></g><g class="participant participant-tail" data-participant="AuthService"><rect fill="#E2E2F0" height="30.2969" rx="2.5" ry="2.5" style="stroke:#181818;stroke-width:0.5;" width="98.5537" x="164.6001" y="428.9219"/><text fill="#000000" font-family="sans-serif" font-size="14" lengthAdjust="spacing" textLength="84.5537" x="171.6001" y="448.917">AuthService</text></g><g class="participant participant-head" data-participant="SupabaseClient"><rect fill="#E2E2F0" height="30.2969" rx="2.5" ry="2.5" style="stroke:#181818;stroke-width:0.5;" width="123.1289" x="294.4023" y="87.2969"/><text fill="#000000" font-family="sans-serif" font-size="14" lengthAdjust="spacing" textLength="109.1289" x="301.4023" y="107.292">SupabaseClient</text></g><g class="participant participant-tail" data-participant="SupabaseClient"><rect fill="#E2E2F0" height="30.2969" rx="2.5" ry="2.5" style="stroke:#181818;stroke-width:0.5;" width="123.1289" x="294.4023" y="428.9219"/><text fill="#000000" font-family="sans-serif" font-size="14" lengthAdjust="spacing" textLength="109.1289" x="301.4023" y="448.917">SupabaseClient</text></g><g class="participant participant-head" data-participant="BankingService"><rect fill="#E2E2F0" height="30.2969" rx="2.5" ry="2.5" style="stroke:#181818;stroke-width:0.5;" width="122.5547" x="489.4946" y="87.2969"/><text fill="#000000" font-family="sans-serif" font-size="14" lengthAdjust="spacing" textLength="108.5547" x="496.4946" y="107.292">BankingService</text></g><g class="participant participant-tail" data-participant="BankingService"><rect fill="#E2E2F0" height="30.2969" rx="2.5" ry="2.5" style="stroke:#181818;stroke-width:0.5;" width="122.5547" x="489.4946" y="428.9219"/><text fill="#000000" font-family="sans-serif" font-size="14" lengthAdjust="spacing" textLength="108.5547" x="496.4946" y="448.917">BankingService</text></g><g><title>AuthService</title><rect fill="#FFFFFF" height="87.3984" style="stroke:#181818;stroke-width:1;" width="10" x="208.877" y="149.7266"/></g><g><title>SupabaseClient</title><rect fill="#FFFFFF" height="29.1328" style="stroke:#181818;stroke-width:1;" width="10" x="350.9668" y="178.8594"/></g><g><title>SupabaseClient</title><rect fill="#FFFFFF" height="87.3984" style="stroke:#181818;stroke-width:1;" width="10" x="350.9668" y="295.3906"/></g><g><title>BankingService</title><rect fill="#FFFFFF" height="145.6641" style="stroke:#181818;stroke-width:1;" width="10" x="545.772" y="266.2578"/></g><g class="message" data-participant-1="Customer" data-participant-2="AuthService"><polygon fill="#181818" points="196.877,145.7266,206.877,149.7266,196.877,153.7266,200.877,149.7266" style="stroke:#181818;stroke-width:1;"/><line style="stroke:#181818;stroke-width:1;" x1="42.002" x2="202.877" y1="149.7266" y2="149.7266"/><text fill="#000000" font-family="sans-serif" font-size="13" lengthAdjust="spacing" textLength="147.875" x="49.002" y="144.6606">login(email, password)</text></g><g class="message" data-participant-1="AuthService" data-participant-2="SupabaseClient"><polygon fill="#181818" points="338.9668,174.8594,348.9668,178.8594,338.9668,182.8594,342.9668,178.8594" style="stroke:#181818;stroke-width:1;"/><line style="stroke:#181818;stroke-width:1;" x1="218.877" x2="344.9668" y1="178.8594" y2="178.8594"/><text fill="#000000" font-family="sans-serif" font-size="13" lengthAdjust="spacing" textLength="113.0898" x="225.877" y="173.7935">verify credentials</text></g><g class="message" data-participant-1="SupabaseClient" data-participant-2="AuthService"><polygon fill="#181818" points="229.877,203.9922,219.877,207.9922,229.877,211.9922,225.877,207.9922" style="stroke:#181818;stroke-width:1;"/><line style="stroke:#181818;stroke-width:1;stroke-dasharray:2,2;" x1="223.877" x2="354.9668" y1="207.9922" y2="207.9922"/><text fill="#000000" font-family="sans-serif" font-size="13" lengthAdjust="spacing" textLength="107.3071" x="235.877" y="202.9263">credentials valid</text></g><g class="message" data-participant-1="AuthService" data-participant-2="Customer"><polygon fill="#181818" points="53.002,233.125,43.002,237.125,53.002,241.125,49.002,237.125" style="stroke:#181818;stroke-width:1;"/><line style="stroke:#181818;stroke-width:1;stroke-dasharray:2,2;" x1="47.002" x2="212.877" y1="237.125" y2="237.125"/><text fill="#000000" font-family="sans-serif" font-size="13" lengthAdjust="spacing" textLength="91.7998" x="59.002" y="232.0591">success token</text></g><g class="message" data-participant-1="Customer" data-participant-2="BankingService"><polygon fill="#181818" points="533.772,262.2578,543.772,266.2578,533.772,270.2578,537.772,266.2578" style="stroke:#181818;stroke-width:1;"/><line style="stroke:#181818;stroke-width:1;" x1="42.002" x2="539.772" y1="266.2578" y2="266.2578"/><text fill="#000000" font-family="sans-serif" font-size="13" lengthAdjust="spacing" textLength="186.6592" x="49.002" y="261.1919">deposit(account_id, amount)</text></g><g class="message" data-participant-1="BankingService" data-participant-2="SupabaseClient"><polygon fill="#181818" points="371.9668,291.3906,361.9668,295.3906,371.9668,299.3906,367.9668,295.3906" style="stroke:#181818;stroke-width:1;"/><line style="stroke:#181818;stroke-width:1;" x1="365.9668" x2="544.772" y1="295.3906" y2="295.3906"/><text fill="#000000" font-family="sans-serif" font-size="13" lengthAdjust="spacing" textLength="101.1182" x="377.9668" y="290.3247">update balance</text></g><g class="message" data-participant-1="SupabaseClient" data-participant-2="BankingService"><polygon fill="#181818" points="533.772,320.5234,543.772,324.5234,533.772,328.5234,537.772,324.5234" style="stroke:#181818;stroke-width:1;"/><line style="stroke:#181818;stroke-width:1;stroke-dasharray:2,2;" x1="360.9668" x2="539.772" y1="324.5234" y2="324.5234"/><text fill="#000000" font-family="sans-serif" font-size="13" lengthAdjust="spacing" textLength="109.3701" x="367.9668" y="319.4575">balance updated</text></g><g class="message" data-participant-1="BankingService" data-participant-2="SupabaseClient"><polygon fill="#181818" points="371.9668,349.6563,361.9668,353.6563,371.9668,357.6563,367.9668,353.6563" style="stroke:#181818;stroke-width:1;"/><line style="stroke:#181818;stroke-width:1;" x1="365.9668" x2="544.772" y1="353.6563" y2="353.6563"/><text fill="#000000" font-family="sans-serif" font-size="13" lengthAdjust="spacing" textLength="160.8052" x="377.9668" y="348.5903">insert transaction record</text></g><g class="message" data-participant-1="SupabaseClient" data-participant-2="BankingService"><polygon fill="#181818" points="533.772,378.7891,543.772,382.7891,533.772,386.7891,537.772,382.7891" style="stroke:#181818;stroke-width:1;"/><line style="stroke:#181818;stroke-width:1;stroke-dasharray:2,2;" x1="355.9668" x2="539.772" y1="382.7891" y2="382.7891"/><text fill="#000000" font-family="sans-serif" font-size="13" lengthAdjust="spacing" textLength="121.8877" x="362.9668" y="377.7231">transaction logged</text></g><g class="message" data-participant-1="BankingService" data-participant-2="Customer"><polygon fill="#181818" points="53.002,407.9219,43.002,411.9219,53.002,415.9219,49.002,411.9219" style="stroke:#181818;stroke-width:1;"/><line style="stroke:#181818;stroke-width:1;stroke-dasharray:2,2;" x1="47.002" x2="549.772" y1="411.9219" y2="411.9219"/><text fill="#000000" font-family="sans-serif" font-size="13" lengthAdjust="spacing" textLength="190.9756" x="59.002" y="406.856">transaction success message</text></g><!--SRC=[bPBHJWCX44NV-Ofvh4dx0treelKFrdSpXN6Tb8ML6TRuzxAnjR1LKry80UxXSY_AwWaUQOp22ay9Ww1LZW4wUiiKRDbax1CEnfIDc62VHUD0oPZp33OxkC_wsb6Qk0Ysu6FFOKK3ib_3Y2BlCRcx6S0JAjMdJQqie2wFU42XlMSAMbWJ9Nxv09l8bGL6BnTEUzWij9ihNnK49lJiZAFVO8slGlf-xHOaMqiYeF58eKRKxshYUS1mvD1VdBYln5TeRSn1dzcj0OTvMiNKgim2ybDOUNIpy80UItN_2UhAuObnGhfRRkSWb1Iq-aM9RAd-fWjhMVb0FVtLpj9DMr2DEfSrb05xgfajv1C0]--></g></svg>