<svg xmlns="http://www.w3.org/2000/svg" xmlns:xlink="http://www.w3.org/1999/xlink" contentStyleType="text/css" data-diagram-type="SEQUENCE" height="452px" preserveAspectRatio="none" style="width:615px;height:452px;background:#FFFFFF;" version="1.1" viewBox="0 0 615 452" width="615px" zoomAndPan="magnify"><title>Admin View All Users Sequence Diagram</title><defs/><g><text fill="#000000" font-family="sans-serif" font-size="14" font-weight="bold" lengthAdjust="spacing" textLength="321.1592" x="146.0908" y="27.9951">Admin View All Users Sequence Diagram</text><g><title>AuthService</title><rect fill="#FFFFFF" height="87.3984" style="stroke:#181818;stroke-width:1;" width="10" x="203.9194" y="149.7266"/></g><g><title>SupabaseClient</title><rect fill="#FFFFFF" height="29.1328" style="stroke:#181818;stroke-width:1;" width="10" x="390.8745" y="178.8594"/></g><g><title>SupabaseClient</title><rect fill="#FFFFFF" height="29.1328" style="stroke:#181818;stroke-width:1;" width="10" x="390.8745" y="295.3906"/></g><g><title>BankingService</title><rect fill="#FFFFFF" height="87.3984" style="stroke:#181818;stroke-width:1;" width="10" x="543.0635" y="266.2578"/></g><g><title>Admin</title><rect fill="#000000" fill-opacity="0.00000" height="253.0625" width="8" x="26.4321" y="118.5938"/><line style="stroke:#181818;stroke-width:0.5;stroke-dasharray:5,5;" x1="30" x2="30" y1="118.5938" y2="371.6563"/></g><g><title>AuthService</title><rect fill="#000000" fill-opacity="0.00000" height="253.0625" width="8" x="204.9194" y="118.5938"/><line style="stroke:#181818;stroke-width:0.5;stroke-dasharray:5,5;" x1="208.6426" x2="208.6426" y1="118.5938" y2="371.6563"/></g><g><title>SupabaseClient</title><rect fill="#000000" fill-opacity="0.00000" height="253.0625" width="8" x="391.8745" y="118.5938"/><line style="stroke:#181818;stroke-width:0.5;stroke-dasharray:5,5;" x1="395.3101" x2="395.3101" y1="118.5938" y2="371.6563"/></g><g><title>BankingService</title><rect fill="#000000" fill-opacity="0.00000" height="253.0625" width="8" x="544.0635" y="118.5938"/><line style="stroke:#181818;stroke-width:0.5;stroke-dasharray:5,5;" x1="547.7861" x2="547.7861" y1="118.5938" y2="371.6563"/></g><g class="participant participant-head" data-participant="Admin"><text fill="#000000" font-family="sans-serif" font-size="14" lengthAdjust="spacing" textLength="44.8643" x="5" y="115.292">Admin</text><ellipse cx="30.4321" cy="50.7969" fill="#E2E2F0" rx="8" ry="8" style="stroke:#181818;stroke-width:0.5;"/><path d="M30.4321,58.7969 L30.4321,85.7969 M17.4321,66.7969 L43.4321,66.7969 M30.4321,85.7969 L17.4321,100.7969 M30.4321,85.7969 L43.4321,100.7969" fill="none" style="stroke:#181818;stroke-width:0.5;"/></g><g class="participant participant-tail" data-participant="Admin"><text fill="#000000" font-family="sans-serif" font-size="14" lengthAdjust="spacing" textLength="44.8643" x="5" y="383.6514">Admin</text><ellipse cx="30.4321" cy="395.4531" fill="#E2E2F0" rx="8" ry="8" style="stroke:#181818;stroke-width:0.5;"/><path d="M30.4321,403.4531 L30.4321,430.4531 M17.4321,411.4531 L43.4321,411.4531 M30.4321,430.4531 L17.4321,445.4531 M30.4321,430.4531 L43.4321,445.4531" fill="none" style="stroke:#181818;stroke-width:0.5;"/></g><g class="participant participant-head" data-participant="AuthService"><rect fill="#E2E2F0" height="30.2969" rx="2.5" ry="2.5" style="stroke:#181818;stroke-width:0.5;" width="98.5537" x="159.6426" y="87.2969"/><text fill="#000000" font-family="sans-serif" font-size="14" lengthAdjust="spacing" textLength="84.5537" x="166.6426" y="107.292">AuthService</text></g><g class="participant participant-tail" data-participant="AuthService"><rect fill="#E2E2F0" height="30.2969" rx="2.5" ry="2.5" style="stroke:#181818;stroke-width:0.5;" width="98.5537" x="159.6426" y="370.6563"/><text fill="#000000" font-family="sans-serif" font-size="14" lengthAdjust="spacing" textLength="84.5537" x="166.6426" y="390.6514">AuthService</text></g><g class="participant participant-head" data-participant="SupabaseClient"><rect fill="#E2E2F0" height="30.2969" rx="2.5" ry="2.5" style="stroke:#181818;stroke-width:0.5;" width="123.1289" x="334.3101" y="87.2969"/><text fill="#000000" font-family="sans-serif" font-size="14" lengthAdjust="spacing" textLength="109.1289" x="341.3101" y="107.292">SupabaseClient</text></g><g class="participant participant-tail" data-participant="SupabaseClient"><rect fill="#E2E2F0" height="30.2969" rx="2.5" ry="2.5" style="stroke:#181818;stroke-width:0.5;" width="123.1289" x="334.3101" y="370.6563"/><text fill="#000000" font-family="sans-serif" font-size="14" lengthAdjust="spacing" textLength="109.1289" x="341.3101" y="390.6514">SupabaseClient</text></g><g class="participant participant-head" data-participant="BankingService"><rect fill="#E2E2F0" height="30.2969" rx="2.5" ry="2.5" style="stroke:#181818;stroke-width:0.5;" width="122.5547" x="486.7861" y="87.2969"/><text fill="#000000" font-family="sans-serif" font-size="14" lengthAdjust="spacing" textLength="108.5547" x="493.7861" y="107.292">BankingService</text></g><g class="participant participant-tail" data-participant="BankingService"><rect fill="#E2E2F0" height="30.2969" rx="2.5" ry="2.5" style="stroke:#181818;stroke-width:0.5;" width="122.5547" x="486.7861" y="370.6563"/><text fill="#000000" font-family="sans-serif" font-size="14" lengthAdjust="spacing" textLength="108.5547" x="493.7861" y="390.6514">BankingService</text></g><g><title>AuthService</title><rect fill="#FFFFFF" height="87.3984" style="stroke:#181818;stroke-width:1;" width="10" x="203.9194" y="149.7266"/></g><g><title>SupabaseClient</title><rect fill="#FFFFFF" height="29.1328" style="stroke:#181818;stroke-width:1;" width="10" x="390.8745" y="178.8594"/></g><g><title>SupabaseClient</title><rect fill="#FFFFFF" height="29.1328" style="stroke:#181818;stroke-width:1;" width="10" x="390.8745" y="295.3906"/></g><g><title>BankingService</title><rect fill="#FFFFFF" height="87.3984" style="stroke:#181818;stroke-width:1;" width="10" x="543.0635" y="266.2578"/></g><g class="message" data-participant-1="Admin" data-participant-2="AuthService"><polygon fill="#181818" points="191.9194,145.7266,201.9194,149.7266,191.9194,153.7266,195.9194,149.7266" style="stroke:#181818;stroke-width:1;"/><line style="stroke:#181818;stroke-width:1;" x1="30.4321" x2="197.9194" y1="149.7266" y2="149.7266"/><text fill="#000000" font-family="sans-serif" font-size="13" lengthAdjust="spacing" textLength="147.875" x="37.4321" y="144.6606">login(email, password)</text></g><g class="message" data-participant-1="AuthService" data-participant-2="SupabaseClient"><polygon fill="#181818" points="378.8745,174.8594,388.8745,178.8594,378.8745,182.8594,382.8745,178.8594" style="stroke:#181818;stroke-width:1;"/><line style="stroke:#181818;stroke-width:1;" x1="213.9194" x2="384.8745" y1="178.8594" y2="178.8594"/><text fill="#000000" font-family="sans-serif" font-size="13" lengthAdjust="spacing" textLength="157.9551" x="220.9194" y="173.7935">verify admin credentials</text></g><g class="message" data-participant-1="SupabaseClient" data-participant-2="AuthService"><polygon fill="#181818" points="224.9194,203.9922,214.9194,207.9922,224.9194,211.9922,220.9194,207.9922" style="stroke:#181818;stroke-width:1;"/><line style="stroke:#181818;stroke-width:1;stroke-dasharray:2,2;" x1="218.9194" x2="394.8745" y1="207.9922" y2="207.9922"/><text fill="#000000" font-family="sans-serif" font-size="13" lengthAdjust="spacing" textLength="107.3071" x="230.9194" y="202.9263">credentials valid</text></g><g class="message" data-participant-1="AuthService" data-participant-2="Admin"><polygon fill="#181818" points="41.4321,233.125,31.4321,237.125,41.4321,241.125,37.4321,237.125" style="stroke:#181818;stroke-width:1;"/><line style="stroke:#181818;stroke-width:1;stroke-dasharray:2,2;" x1="35.4321" x2="207.9194" y1="237.125" y2="237.125"/><text fill="#000000" font-family="sans-serif" font-size="13" lengthAdjust="spacing" textLength="149.4873" x="47.4321" y="232.0591">authentication success</text></g><g class="message" data-participant-1="Admin" data-participant-2="BankingService"><polygon fill="#181818" points="531.0635,262.2578,541.0635,266.2578,531.0635,270.2578,535.0635,266.2578" style="stroke:#181818;stroke-width:1;"/><line style="stroke:#181818;stroke-width:1;" x1="30.4321" x2="537.0635" y1="266.2578" y2="266.2578"/><text fill="#000000" font-family="sans-serif" font-size="13" lengthAdjust="spacing" textLength="94.8086" x="37.4321" y="261.1919">get_all_users()</text></g><g class="message" data-participant-1="BankingService" data-participant-2="SupabaseClient"><polygon fill="#181818" points="411.8745,291.3906,401.8745,295.3906,411.8745,299.3906,407.8745,295.3906" style="stroke:#181818;stroke-width:1;"/><line style="stroke:#181818;stroke-width:1;" x1="405.8745" x2="542.0635" y1="295.3906" y2="295.3906"/><text fill="#000000" font-family="sans-serif" font-size="13" lengthAdjust="spacing" textLength="123.189" x="417.8745" y="290.3247">select * from users</text></g><g class="message" data-participant-1="SupabaseClient" data-participant-2="BankingService"><polygon fill="#181818" points="531.0635,320.5234,541.0635,324.5234,531.0635,328.5234,535.0635,324.5234" style="stroke:#181818;stroke-width:1;"/><line style="stroke:#181818;stroke-width:1;stroke-dasharray:2,2;" x1="395.8745" x2="537.0635" y1="324.5234" y2="324.5234"/><text fill="#000000" font-family="sans-serif" font-size="13" lengthAdjust="spacing" textLength="75.0166" x="402.8745" y="319.4575">list of users</text></g><g class="message" data-participant-1="BankingService" data-participant-2="Admin"><polygon fill="#181818" points="41.4321,349.6563,31.4321,353.6563,41.4321,357.6563,37.4321,353.6563" style="stroke:#181818;stroke-width:1;"/><line style="stroke:#181818;stroke-width:1;stroke-dasharray:2,2;" x1="35.4321" x2="547.0635" y1="353.6563" y2="353.6563"/><text fill="#000000" font-family="sans-serif" font-size="13" lengthAdjust="spacing" textLength="131.3838" x="47.4321" y="348.5903">display all user data</text></g><!--SRC=[bP91JiCm44NtFiKiMqGlq0LIW1j4iAq6Un96JEpWSLBrzZWfKfoKBjYEvZz_Fpjn4eBATUpXdUaCbGYyAKM5chu7yfRWbR6Ds1c3DeLuNJRccZayGJMapvhYo7dr219QzZlgaEKHUbGzX-ZsKvH7J5HkcpAPGVNGumSglGYJJvarKkJc0ZYVP2EvF6OKNMZhYDaG3ZVj2WYCAEoCetkmLRk9DDSu0kRvnB2OE7ZGmLfIBK7b7HTFp-Y_sBTBcPRI2KLEmwHxLpXQRvfDy2zJIa8smGCqCNGm0_yZwQQQi2O8pI_flgDjjKAJO-q5y-lb3pLXm6724hNE_W00]--></g></svg>