<svg xmlns="http://www.w3.org/2000/svg" xmlns:xlink="http://www.w3.org/1999/xlink" contentStyleType="text/css" data-diagram-type="SEQUENCE" height="335px" preserveAspectRatio="none" style="width:478px;height:335px;background:#FFFFFF;" version="1.1" viewBox="0 0 478 335" width="478px" zoomAndPan="magnify"><title>Admin View All Transactions Sequence Diagram</title><defs/><g><text fill="#000000" font-family="sans-serif" font-size="14" font-weight="bold" lengthAdjust="spacing" textLength="378.082" x="49.3179" y="27.9951">Admin View All Transactions Sequence Diagram</text><g><title>BankingService</title><rect fill="#FFFFFF" height="87.3984" style="stroke:#181818;stroke-width:1;" width="10" x="208.8833" y="149.7266"/></g><g><title>SupabaseClient</title><rect fill="#FFFFFF" height="29.1328" style="stroke:#181818;stroke-width:1;" width="10" x="406.1533" y="178.8594"/></g><g><title>Admin</title><rect fill="#000000" fill-opacity="0.00000" height="136.5313" width="8" x="26.4321" y="118.5938"/><line style="stroke:#181818;stroke-width:0.5;stroke-dasharray:5,5;" x1="30" x2="30" y1="118.5938" y2="255.125"/></g><g><title>BankingService</title><rect fill="#000000" fill-opacity="0.00000" height="136.5313" width="8" x="209.8833" y="118.5938"/><line style="stroke:#181818;stroke-width:0.5;stroke-dasharray:5,5;" x1="213.606" x2="213.606" y1="118.5938" y2="255.125"/></g><g><title>SupabaseClient</title><rect fill="#000000" fill-opacity="0.00000" height="136.5313" width="8" x="407.1533" y="118.5938"/><line style="stroke:#181818;stroke-width:0.5;stroke-dasharray:5,5;" x1="410.5889" x2="410.5889" y1="118.5938" y2="255.125"/></g><g class="participant participant-head" data-participant="Admin"><text fill="#000000" font-family="sans-serif" font-size="14" lengthAdjust="spacing" textLength="44.8643" x="5" y="115.292">Admin</text><ellipse cx="30.4321" cy="50.7969" fill="#E2E2F0" rx="8" ry="8" style="stroke:#181818;stroke-width:0.5;"/><path d="M30.4321,58.7969 L30.4321,85.7969 M17.4321,66.7969 L43.4321,66.7969 M30.4321,85.7969 L17.4321,100.7969 M30.4321,85.7969 L43.4321,100.7969" fill="none" style="stroke:#181818;stroke-width:0.5;"/></g><g class="participant participant-tail" data-participant="Admin"><text fill="#000000" font-family="sans-serif" font-size="14" lengthAdjust="spacing" textLength="44.8643" x="5" y="267.1201">Admin</text><ellipse cx="30.4321" cy="278.9219" fill="#E2E2F0" rx="8" ry="8" style="stroke:#181818;stroke-width:0.5;"/><path d="M30.4321,286.9219 L30.4321,313.9219 M17.4321,294.9219 L43.4321,294.9219 M30.4321,313.9219 L17.4321,328.9219 M30.4321,313.9219 L43.4321,328.9219" fill="none" style="stroke:#181818;stroke-width:0.5;"/></g><g class="participant participant-head" data-participant="BankingService"><rect fill="#E2E2F0" height="30.2969" rx="2.5" ry="2.5" style="stroke:#181818;stroke-width:0.5;" width="122.5547" x="152.606" y="87.2969"/><text fill="#000000" font-family="sans-serif" font-size="14" lengthAdjust="spacing" textLength="108.5547" x="159.606" y="107.292">BankingService</text></g><g class="participant participant-tail" data-participant="BankingService"><rect fill="#E2E2F0" height="30.2969" rx="2.5" ry="2.5" style="stroke:#181818;stroke-width:0.5;" width="122.5547" x="152.606" y="254.125"/><text fill="#000000" font-family="sans-serif" font-size="14" lengthAdjust="spacing" textLength="108.5547" x="159.606" y="274.1201">BankingService</text></g><g class="participant participant-head" data-participant="SupabaseClient"><rect fill="#E2E2F0" height="30.2969" rx="2.5" ry="2.5" style="stroke:#181818;stroke-width:0.5;" width="123.1289" x="349.5889" y="87.2969"/><text fill="#000000" font-family="sans-serif" font-size="14" lengthAdjust="spacing" textLength="109.1289" x="356.5889" y="107.292">SupabaseClient</text></g><g class="participant participant-tail" data-participant="SupabaseClient"><rect fill="#E2E2F0" height="30.2969" rx="2.5" ry="2.5" style="stroke:#181818;stroke-width:0.5;" width="123.1289" x="349.5889" y="254.125"/><text fill="#000000" font-family="sans-serif" font-size="14" lengthAdjust="spacing" textLength="109.1289" x="356.5889" y="274.1201">SupabaseClient</text></g><g><title>BankingService</title><rect fill="#FFFFFF" height="87.3984" style="stroke:#181818;stroke-width:1;" width="10" x="208.8833" y="149.7266"/></g><g><title>SupabaseClient</title><rect fill="#FFFFFF" height="29.1328" style="stroke:#181818;stroke-width:1;" width="10" x="406.1533" y="178.8594"/></g><g class="message" data-participant-1="Admin" data-participant-2="BankingService"><polygon fill="#181818" points="196.8833,145.7266,206.8833,149.7266,196.8833,153.7266,200.8833,149.7266" style="stroke:#181818;stroke-width:1;"/><line style="stroke:#181818;stroke-width:1;" x1="30.4321" x2="202.8833" y1="149.7266" y2="149.7266"/><text fill="#000000" font-family="sans-serif" font-size="13" lengthAdjust="spacing" textLength="139.8896" x="37.4321" y="144.6606">get_all_transactions()</text></g><g class="message" data-participant-1="BankingService" data-participant-2="SupabaseClient"><polygon fill="#181818" points="394.1533,174.8594,404.1533,178.8594,394.1533,182.8594,398.1533,178.8594" style="stroke:#181818;stroke-width:1;"/><line style="stroke:#181818;stroke-width:1;" x1="218.8833" x2="400.1533" y1="178.8594" y2="178.8594"/><text fill="#000000" font-family="sans-serif" font-size="13" lengthAdjust="spacing" textLength="168.27" x="225.8833" y="173.7935">select * from transactions</text></g><g class="message" data-participant-1="SupabaseClient" data-participant-2="BankingService"><polygon fill="#181818" points="229.8833,203.9922,219.8833,207.9922,229.8833,211.9922,225.8833,207.9922" style="stroke:#181818;stroke-width:1;"/><line style="stroke:#181818;stroke-width:1;stroke-dasharray:2,2;" x1="223.8833" x2="410.1533" y1="207.9922" y2="207.9922"/><text fill="#000000" font-family="sans-serif" font-size="13" lengthAdjust="spacing" textLength="139.4199" x="235.8833" y="202.9263">list of all transactions</text></g><g class="message" data-participant-1="BankingService" data-participant-2="Admin"><polygon fill="#181818" points="41.4321,233.125,31.4321,237.125,41.4321,241.125,37.4321,237.125" style="stroke:#181818;stroke-width:1;"/><line style="stroke:#181818;stroke-width:1;stroke-dasharray:2,2;" x1="35.4321" x2="212.8833" y1="237.125" y2="237.125"/><text fill="#000000" font-family="sans-serif" font-size="13" lengthAdjust="spacing" textLength="154.4512" x="47.4321" y="232.0591">display transaction logs</text></g><!--SRC=[TT113e8m48NXVKynIpNX0YvCK6-0SKj669g9GuljWF7srh0G6brt_YylLLOXADkU7LoPdb2Am2MWYzWeUnUXeiT8hY4uCzg0lJ7fnOUvCMPEYmCSqTtPsOh2nEbw3vQqHf5Q5zfc-wbvGgKiC5cVn6eSy8QHJiBaD8cHX1g57NJ1zx1ql-ewCfbH_1eg71Ly1sdi6ctf7vkFJUpy4NjeEGw2hwK4ukrAM-Tl]--></g></svg>