<svg xmlns="http://www.w3.org/2000/svg" xmlns:xlink="http://www.w3.org/1999/xlink" contentStyleType="text/css" data-diagram-type="SEQUENCE" height="335px" preserveAspectRatio="none" style="width:741px;height:335px;background:#FFFFFF;" version="1.1" viewBox="0 0 741 335" width="741px" zoomAndPan="magnify"><title>Create Account Sequence Diagram</title><defs/><g><text fill="#000000" font-family="sans-serif" font-size="14" font-weight="bold" lengthAdjust="spacing" textLength="274.2578" x="232.6001" y="27.9951">Create Account Sequence Diagram</text><g><title>BankingService</title><rect fill="#FFFFFF" height="87.3984" style="stroke:#181818;stroke-width:1;" width="10" x="292.8228" y="149.7266"/></g><g><title>SupabaseClient</title><rect fill="#FFFFFF" height="29.1328" style="stroke:#181818;stroke-width:1;" width="10" x="668.8936" y="178.8594"/></g><g><title>Customer</title><rect fill="#000000" fill-opacity="0.00000" height="136.5313" width="8" x="38.002" y="118.5938"/><line style="stroke:#181818;stroke-width:0.5;stroke-dasharray:5,5;" x1="42" x2="42" y1="118.5938" y2="255.125"/></g><g><title>BankingService</title><rect fill="#000000" fill-opacity="0.00000" height="136.5313" width="8" x="293.8228" y="118.5938"/><line style="stroke:#181818;stroke-width:0.5;stroke-dasharray:5,5;" x1="297.5454" x2="297.5454" y1="118.5938" y2="255.125"/></g><g><title>SupabaseClient</title><rect fill="#000000" fill-opacity="0.00000" height="136.5313" width="8" x="669.8936" y="118.5938"/><line style="stroke:#181818;stroke-width:0.5;stroke-dasharray:5,5;" x1="673.3291" x2="673.3291" y1="118.5938" y2="255.125"/></g><g class="participant participant-head" data-participant="Customer"><text fill="#000000" font-family="sans-serif" font-size="14" lengthAdjust="spacing" textLength="68.0039" x="5" y="115.292">Customer</text><ellipse cx="42.002" cy="50.7969" fill="#E2E2F0" rx="8" ry="8" style="stroke:#181818;stroke-width:0.5;"/><path d="M42.002,58.7969 L42.002,85.7969 M29.002,66.7969 L55.002,66.7969 M42.002,85.7969 L29.002,100.7969 M42.002,85.7969 L55.002,100.7969" fill="none" style="stroke:#181818;stroke-width:0.5;"/></g><g class="participant participant-tail" data-participant="Customer"><text fill="#000000" font-family="sans-serif" font-size="14" lengthAdjust="spacing" textLength="68.0039" x="5" y="267.1201">Customer</text><ellipse cx="42.002" cy="278.9219" fill="#E2E2F0" rx="8" ry="8" style="stroke:#181818;stroke-width:0.5;"/><path d="M42.002,286.9219 L42.002,313.9219 M29.002,294.9219 L55.002,294.9219 M42.002,313.9219 L29.002,328.9219 M42.002,313.9219 L55.002,328.9219" fill="none" style="stroke:#181818;stroke-width:0.5;"/></g><g class="participant participant-head" data-participant="BankingService"><rect fill="#E2E2F0" height="30.2969" rx="2.5" ry="2.5" style="stroke:#181818;stroke-width:0.5;" width="122.5547" x="236.5454" y="87.2969"/><text fill="#000000" font-family="sans-serif" font-size="14" lengthAdjust="spacing" textLength="108.5547" x="243.5454" y="107.292">BankingService</text></g><g class="participant participant-tail" data-participant="BankingService"><rect fill="#E2E2F0" height="30.2969" rx="2.5" ry="2.5" style="stroke:#181818;stroke-width:0.5;" width="122.5547" x="236.5454" y="254.125"/><text fill="#000000" font-family="sans-serif" font-size="14" lengthAdjust="spacing" textLength="108.5547" x="243.5454" y="274.1201">BankingService</text></g><g class="participant participant-head" data-participant="SupabaseClient"><rect fill="#E2E2F0" height="30.2969" rx="2.5" ry="2.5" style="stroke:#181818;stroke-width:0.5;" width="123.1289" x="612.3291" y="87.2969"/><text fill="#000000" font-family="sans-serif" font-size="14" lengthAdjust="spacing" textLength="109.1289" x="619.3291" y="107.292">SupabaseClient</text></g><g class="participant participant-tail" data-participant="SupabaseClient"><rect fill="#E2E2F0" height="30.2969" rx="2.5" ry="2.5" style="stroke:#181818;stroke-width:0.5;" width="123.1289" x="612.3291" y="254.125"/><text fill="#000000" font-family="sans-serif" font-size="14" lengthAdjust="spacing" textLength="109.1289" x="619.3291" y="274.1201">SupabaseClient</text></g><g><title>BankingService</title><rect fill="#FFFFFF" height="87.3984" style="stroke:#181818;stroke-width:1;" width="10" x="292.8228" y="149.7266"/></g><g><title>SupabaseClient</title><rect fill="#FFFFFF" height="29.1328" style="stroke:#181818;stroke-width:1;" width="10" x="668.8936" y="178.8594"/></g><g class="message" data-participant-1="Customer" data-participant-2="BankingService"><polygon fill="#181818" points="280.8228,145.7266,290.8228,149.7266,280.8228,153.7266,284.8228,149.7266" style="stroke:#181818;stroke-width:1;"/><line style="stroke:#181818;stroke-width:1;" x1="42.002" x2="286.8228" y1="149.7266" y2="149.7266"/><text fill="#000000" font-family="sans-serif" font-size="13" lengthAdjust="spacing" textLength="197.3169" x="49.002" y="144.6606">create_account(account_type)</text></g><g class="message" data-participant-1="BankingService" data-participant-2="SupabaseClient"><polygon fill="#181818" points="656.8936,174.8594,666.8936,178.8594,656.8936,182.8594,660.8936,178.8594" style="stroke:#181818;stroke-width:1;"/><line style="stroke:#181818;stroke-width:1;" x1="302.8228" x2="662.8936" y1="178.8594" y2="178.8594"/><text fill="#000000" font-family="sans-serif" font-size="13" lengthAdjust="spacing" textLength="347.0708" x="309.8228" y="173.7935">insert new account record (user_id, type, balance=0)</text></g><g class="message" data-participant-1="SupabaseClient" data-participant-2="BankingService"><polygon fill="#181818" points="313.8228,203.9922,303.8228,207.9922,313.8228,211.9922,309.8228,207.9922" style="stroke:#181818;stroke-width:1;"/><line style="stroke:#181818;stroke-width:1;stroke-dasharray:2,2;" x1="307.8228" x2="672.8936" y1="207.9922" y2="207.9922"/><text fill="#000000" font-family="sans-serif" font-size="13" lengthAdjust="spacing" textLength="105.7266" x="319.8228" y="202.9263">account created</text></g><g class="message" data-participant-1="BankingService" data-participant-2="Customer"><polygon fill="#181818" points="53.002,233.125,43.002,237.125,53.002,241.125,49.002,237.125" style="stroke:#181818;stroke-width:1;"/><line style="stroke:#181818;stroke-width:1;stroke-dasharray:2,2;" x1="47.002" x2="296.8228" y1="237.125" y2="237.125"/><text fill="#000000" font-family="sans-serif" font-size="13" lengthAdjust="spacing" textLength="226.8208" x="59.002" y="232.0591">account creation success message</text></g><!--SRC=[TT1DQiCm40NWlKxnbWaaq7MWXTIzWGzW9lB33B6bL3yEkNtb_9JO91j9CCptPfGqzKGLA8dOM-kpIwZvc-aiyQFI1HcC4PjyG9LZyWE3COyNjb_u5dTKrzKCevQU7UnLQ-IchUvtaoudhYT9nobitcOMId7hV9A3H5QziWorWxh8aE1unjr4eFMXnIgNIgFj1bF81WVffSp_-V6KD-VCGj- -MkIHSbkeDItVQSlfY_R_HGj7lKFCrZ963EMGZi_mNFe3]--></g></svg>