<svg xmlns="http://www.w3.org/2000/svg" xmlns:xlink="http://www.w3.org/1999/xlink" contentStyleType="text/css" data-diagram-type="SEQUENCE" height="335px" preserveAspectRatio="none" style="width:632px;height:335px;background:#FFFFFF;" version="1.1" viewBox="0 0 632 335" width="632px" zoomAndPan="magnify"><title>Login Sequence Diagram</title><defs/><g><text fill="#000000" font-family="sans-serif" font-size="14" font-weight="bold" lengthAdjust="spacing" textLength="196.7246" x="216.8022" y="27.9951">Login Sequence Diagram</text><g><title>AuthService</title><rect fill="#FFFFFF" height="87.3984" style="stroke:#181818;stroke-width:1;" width="10" x="305.0991" y="149.7266"/></g><g><title>SupabaseClient</title><rect fill="#FFFFFF" height="29.1328" style="stroke:#181818;stroke-width:1;" width="10" x="559.7646" y="178.8594"/></g><g><title>Customer</title><rect fill="#000000" fill-opacity="0.00000" height="136.5313" width="8" x="38.002" y="118.5938"/><line style="stroke:#181818;stroke-width:0.5;stroke-dasharray:5,5;" x1="42" x2="42" y1="118.5938" y2="255.125"/></g><g><title>AuthService</title><rect fill="#000000" fill-opacity="0.00000" height="136.5313" width="8" x="306.0991" y="118.5938"/><line style="stroke:#181818;stroke-width:0.5;stroke-dasharray:5,5;" x1="309.8223" x2="309.8223" y1="118.5938" y2="255.125"/></g><g><title>SupabaseClient</title><rect fill="#000000" fill-opacity="0.00000" height="136.5313" width="8" x="560.7646" y="118.5938"/><line style="stroke:#181818;stroke-width:0.5;stroke-dasharray:5,5;" x1="564.2002" x2="564.2002" y1="118.5938" y2="255.125"/></g><g class="participant participant-head" data-participant="Customer"><text fill="#000000" font-family="sans-serif" font-size="14" lengthAdjust="spacing" textLength="68.0039" x="5" y="115.292">Customer</text><ellipse cx="42.002" cy="50.7969" fill="#E2E2F0" rx="8" ry="8" style="stroke:#181818;stroke-width:0.5;"/><path d="M42.002,58.7969 L42.002,85.7969 M29.002,66.7969 L55.002,66.7969 M42.002,85.7969 L29.002,100.7969 M42.002,85.7969 L55.002,100.7969" fill="none" style="stroke:#181818;stroke-width:0.5;"/></g><g class="participant participant-tail" data-participant="Customer"><text fill="#000000" font-family="sans-serif" font-size="14" lengthAdjust="spacing" textLength="68.0039" x="5" y="267.1201">Customer</text><ellipse cx="42.002" cy="278.9219" fill="#E2E2F0" rx="8" ry="8" style="stroke:#181818;stroke-width:0.5;"/><path d="M42.002,286.9219 L42.002,313.9219 M29.002,294.9219 L55.002,294.9219 M42.002,313.9219 L29.002,328.9219 M42.002,313.9219 L55.002,328.9219" fill="none" style="stroke:#181818;stroke-width:0.5;"/></g><g class="participant participant-head" data-participant="AuthService"><rect fill="#E2E2F0" height="30.2969" rx="2.5" ry="2.5" style="stroke:#181818;stroke-width:0.5;" width="98.5537" x="260.8223" y="87.2969"/><text fill="#000000" font-family="sans-serif" font-size="14" lengthAdjust="spacing" textLength="84.5537" x="267.8223" y="107.292">AuthService</text></g><g class="participant participant-tail" data-participant="AuthService"><rect fill="#E2E2F0" height="30.2969" rx="2.5" ry="2.5" style="stroke:#181818;stroke-width:0.5;" width="98.5537" x="260.8223" y="254.125"/><text fill="#000000" font-family="sans-serif" font-size="14" lengthAdjust="spacing" textLength="84.5537" x="267.8223" y="274.1201">AuthService</text></g><g class="participant participant-head" data-participant="SupabaseClient"><rect fill="#E2E2F0" height="30.2969" rx="2.5" ry="2.5" style="stroke:#181818;stroke-width:0.5;" width="123.1289" x="503.2002" y="87.2969"/><text fill="#000000" font-family="sans-serif" font-size="14" lengthAdjust="spacing" textLength="109.1289" x="510.2002" y="107.292">SupabaseClient</text></g><g class="participant participant-tail" data-participant="SupabaseClient"><rect fill="#E2E2F0" height="30.2969" rx="2.5" ry="2.5" style="stroke:#181818;stroke-width:0.5;" width="123.1289" x="503.2002" y="254.125"/><text fill="#000000" font-family="sans-serif" font-size="14" lengthAdjust="spacing" textLength="109.1289" x="510.2002" y="274.1201">SupabaseClient</text></g><g><title>AuthService</title><rect fill="#FFFFFF" height="87.3984" style="stroke:#181818;stroke-width:1;" width="10" x="305.0991" y="149.7266"/></g><g><title>SupabaseClient</title><rect fill="#FFFFFF" height="29.1328" style="stroke:#181818;stroke-width:1;" width="10" x="559.7646" y="178.8594"/></g><g class="message" data-participant-1="Customer" data-participant-2="AuthService"><polygon fill="#181818" points="293.0991,145.7266,303.0991,149.7266,293.0991,153.7266,297.0991,149.7266" style="stroke:#181818;stroke-width:1;"/><line style="stroke:#181818;stroke-width:1;" x1="42.002" x2="299.0991" y1="149.7266" y2="149.7266"/><text fill="#000000" font-family="sans-serif" font-size="13" lengthAdjust="spacing" textLength="147.875" x="49.002" y="144.6606">login(email, password)</text></g><g class="message" data-participant-1="AuthService" data-participant-2="SupabaseClient"><polygon fill="#181818" points="547.7646,174.8594,557.7646,178.8594,547.7646,182.8594,551.7646,178.8594" style="stroke:#181818;stroke-width:1;"/><line style="stroke:#181818;stroke-width:1;" x1="315.0991" x2="553.7646" y1="178.8594" y2="178.8594"/><text fill="#000000" font-family="sans-serif" font-size="13" lengthAdjust="spacing" textLength="225.6655" x="322.0991" y="173.7935">verify credentials (Supabase Auth)</text></g><g class="message" data-participant-1="SupabaseClient" data-participant-2="AuthService"><polygon fill="#181818" points="326.0991,203.9922,316.0991,207.9922,326.0991,211.9922,322.0991,207.9922" style="stroke:#181818;stroke-width:1;"/><line style="stroke:#181818;stroke-width:1;stroke-dasharray:2,2;" x1="320.0991" x2="563.7646" y1="207.9922" y2="207.9922"/><text fill="#000000" font-family="sans-serif" font-size="13" lengthAdjust="spacing" textLength="135.7002" x="332.0991" y="202.9263">authentication result</text></g><g class="message" data-participant-1="AuthService" data-participant-2="Customer"><polygon fill="#181818" points="53.002,233.125,43.002,237.125,53.002,241.125,49.002,237.125" style="stroke:#181818;stroke-width:1;"/><line style="stroke:#181818;stroke-width:1;stroke-dasharray:2,2;" x1="47.002" x2="309.0991" y1="237.125" y2="237.125"/><text fill="#000000" font-family="sans-serif" font-size="13" lengthAdjust="spacing" textLength="239.0972" x="59.002" y="232.0591">success token / authentication failed</text></g><!--SRC=[TT2nRW8n30RWFK_X4IHGTmOaH4UsUmAJ-pcivXA8dKDz- -OgNHL0tMpB_oVB9XP0fpH8f0xtWkX1dy93vj4vzfOo7OjQ6f6TMohQxkbGxDeXJr83EmgpiCB84ZPqOzL7olrw1cHYGxljscI5kdBZCokEGH2jMXEoNBx9P_Hr81oKLilIBzIups7tOctVxkJQpQXdanGfGqimr-C_yEdMglrzO4TQl8SgMVf2f8zN-b9VWRwb6-i7]--></g></svg>