<svg xmlns="http://www.w3.org/2000/svg" xmlns:xlink="http://www.w3.org/1999/xlink" contentStyleType="text/css" data-diagram-type="SEQUENCE" height="335px" preserveAspectRatio="none" style="width:594px;height:335px;background:#FFFFFF;" version="1.1" viewBox="0 0 594 335" width="594px" zoomAndPan="magnify"><title>User Registration Sequence Diagram</title><defs/><g><text fill="#000000" font-family="sans-serif" font-size="14" font-weight="bold" lengthAdjust="spacing" textLength="291.9219" x="150.3394" y="27.9951">User Registration Sequence Diagram</text><g><title>AuthService</title><rect fill="#FFFFFF" height="87.3984" style="stroke:#181818;stroke-width:1;" width="10" x="272.7598" y="149.7266"/></g><g><title>SupabaseClient</title><rect fill="#FFFFFF" height="29.1328" style="stroke:#181818;stroke-width:1;" width="10" x="522.0361" y="178.8594"/></g><g><title>Customer</title><rect fill="#000000" fill-opacity="0.00000" height="136.5313" width="8" x="38.002" y="118.5938"/><line style="stroke:#181818;stroke-width:0.5;stroke-dasharray:5,5;" x1="42" x2="42" y1="118.5938" y2="255.125"/></g><g><title>AuthService</title><rect fill="#000000" fill-opacity="0.00000" height="136.5313" width="8" x="273.7598" y="118.5938"/><line style="stroke:#181818;stroke-width:0.5;stroke-dasharray:5,5;" x1="277.4829" x2="277.4829" y1="118.5938" y2="255.125"/></g><g><title>SupabaseClient</title><rect fill="#000000" fill-opacity="0.00000" height="136.5313" width="8" x="523.0361" y="118.5938"/><line style="stroke:#181818;stroke-width:0.5;stroke-dasharray:5,5;" x1="526.4717" x2="526.4717" y1="118.5938" y2="255.125"/></g><g class="participant participant-head" data-participant="Customer"><text fill="#000000" font-family="sans-serif" font-size="14" lengthAdjust="spacing" textLength="68.0039" x="5" y="115.292">Customer</text><ellipse cx="42.002" cy="50.7969" fill="#E2E2F0" rx="8" ry="8" style="stroke:#181818;stroke-width:0.5;"/><path d="M42.002,58.7969 L42.002,85.7969 M29.002,66.7969 L55.002,66.7969 M42.002,85.7969 L29.002,100.7969 M42.002,85.7969 L55.002,100.7969" fill="none" style="stroke:#181818;stroke-width:0.5;"/></g><g class="participant participant-tail" data-participant="Customer"><text fill="#000000" font-family="sans-serif" font-size="14" lengthAdjust="spacing" textLength="68.0039" x="5" y="267.1201">Customer</text><ellipse cx="42.002" cy="278.9219" fill="#E2E2F0" rx="8" ry="8" style="stroke:#181818;stroke-width:0.5;"/><path d="M42.002,286.9219 L42.002,313.9219 M29.002,294.9219 L55.002,294.9219 M42.002,313.9219 L29.002,328.9219 M42.002,313.9219 L55.002,328.9219" fill="none" style="stroke:#181818;stroke-width:0.5;"/></g><g class="participant participant-head" data-participant="AuthService"><rect fill="#E2E2F0" height="30.2969" rx="2.5" ry="2.5" style="stroke:#181818;stroke-width:0.5;" width="98.5537" x="228.4829" y="87.2969"/><text fill="#000000" font-family="sans-serif" font-size="14" lengthAdjust="spacing" textLength="84.5537" x="235.4829" y="107.292">AuthService</text></g><g class="participant participant-tail" data-participant="AuthService"><rect fill="#E2E2F0" height="30.2969" rx="2.5" ry="2.5" style="stroke:#181818;stroke-width:0.5;" width="98.5537" x="228.4829" y="254.125"/><text fill="#000000" font-family="sans-serif" font-size="14" lengthAdjust="spacing" textLength="84.5537" x="235.4829" y="274.1201">AuthService</text></g><g class="participant participant-head" data-participant="SupabaseClient"><rect fill="#E2E2F0" height="30.2969" rx="2.5" ry="2.5" style="stroke:#181818;stroke-width:0.5;" width="123.1289" x="465.4717" y="87.2969"/><text fill="#000000" font-family="sans-serif" font-size="14" lengthAdjust="spacing" textLength="109.1289" x="472.4717" y="107.292">SupabaseClient</text></g><g class="participant participant-tail" data-participant="SupabaseClient"><rect fill="#E2E2F0" height="30.2969" rx="2.5" ry="2.5" style="stroke:#181818;stroke-width:0.5;" width="123.1289" x="465.4717" y="254.125"/><text fill="#000000" font-family="sans-serif" font-size="14" lengthAdjust="spacing" textLength="109.1289" x="472.4717" y="274.1201">SupabaseClient</text></g><g><title>AuthService</title><rect fill="#FFFFFF" height="87.3984" style="stroke:#181818;stroke-width:1;" width="10" x="272.7598" y="149.7266"/></g><g><title>SupabaseClient</title><rect fill="#FFFFFF" height="29.1328" style="stroke:#181818;stroke-width:1;" width="10" x="522.0361" y="178.8594"/></g><g class="message" data-participant-1="Customer" data-participant-2="AuthService"><polygon fill="#181818" points="260.7598,145.7266,270.7598,149.7266,260.7598,153.7266,264.7598,149.7266" style="stroke:#181818;stroke-width:1;"/><line style="stroke:#181818;stroke-width:1;" x1="42.002" x2="266.7598" y1="149.7266" y2="149.7266"/><text fill="#000000" font-family="sans-serif" font-size="13" lengthAdjust="spacing" textLength="211.7578" x="49.002" y="144.6606">register(name, email, password)</text></g><g class="message" data-participant-1="AuthService" data-participant-2="SupabaseClient"><polygon fill="#181818" points="510.0361,174.8594,520.0361,178.8594,510.0361,182.8594,514.0361,178.8594" style="stroke:#181818;stroke-width:1;"/><line style="stroke:#181818;stroke-width:1;" x1="282.7598" x2="516.0361" y1="178.8594" y2="178.8594"/><text fill="#000000" font-family="sans-serif" font-size="13" lengthAdjust="spacing" textLength="220.2764" x="289.7598" y="173.7935">insert user data into "users" table</text></g><g class="message" data-participant-1="SupabaseClient" data-participant-2="AuthService"><polygon fill="#181818" points="293.7598,203.9922,283.7598,207.9922,293.7598,211.9922,289.7598,207.9922" style="stroke:#181818;stroke-width:1;"/><line style="stroke:#181818;stroke-width:1;stroke-dasharray:2,2;" x1="287.7598" x2="526.0361" y1="207.9922" y2="207.9922"/><text fill="#000000" font-family="sans-serif" font-size="13" lengthAdjust="spacing" textLength="137.3887" x="299.7598" y="202.9263">success confirmation</text></g><g class="message" data-participant-1="AuthService" data-participant-2="Customer"><polygon fill="#181818" points="53.002,233.125,43.002,237.125,53.002,241.125,49.002,237.125" style="stroke:#181818;stroke-width:1;"/><line style="stroke:#181818;stroke-width:1;stroke-dasharray:2,2;" x1="47.002" x2="276.7598" y1="237.125" y2="237.125"/><text fill="#000000" font-family="sans-serif" font-size="13" lengthAdjust="spacing" textLength="192.8291" x="59.002" y="232.0591">registration success message</text></g><!--SRC=[TT11RW8n30NGVKvXiG89Bi02gQ8dwAW7C9dVmT8aeRP3hzyCwhH34PieYVIVlktY8-ZTeFI6GSoLNKgc3fyLEO9UXGVb5097Bqh7QbuID8JvHhi3lLG_Tz2hjC2Uz0P1rvaJjeJ4CcxfmcPVHVlD9CcL7SjOM19DxEg5JsmuZeBi3PNSEZhLgMdFpkt32wscjwt8-JJY3xvFXt_Oxg6nrHXXHh7a3z5qMq7eySoxwzgmtrNCi_yiSMPJEtZ0KbmGtm00]--></g></svg>