<svg xmlns="http://www.w3.org/2000/svg" xmlns:xlink="http://www.w3.org/1999/xlink" contentStyleType="text/css" data-diagram-type="SEQUENCE" height="335px" preserveAspectRatio="none" style="width:708px;height:335px;background:#FFFFFF;" version="1.1" viewBox="0 0 708 335" width="708px" zoomAndPan="magnify"><title>View Transaction History Sequence Diagram</title><defs/><g><text fill="#000000" font-family="sans-serif" font-size="14" font-weight="bold" lengthAdjust="spacing" textLength="351.4219" x="177.4485" y="27.9951">View Transaction History Sequence Diagram</text><g><title>BankingService</title><rect fill="#FFFFFF" height="87.3984" style="stroke:#181818;stroke-width:1;" width="10" x="293.7959" y="149.7266"/></g><g><title>SupabaseClient</title><rect fill="#FFFFFF" height="29.1328" style="stroke:#181818;stroke-width:1;" width="10" x="635.7544" y="178.8594"/></g><g><title>Customer</title><rect fill="#000000" fill-opacity="0.00000" height="136.5313" width="8" x="38.002" y="118.5938"/><line style="stroke:#181818;stroke-width:0.5;stroke-dasharray:5,5;" x1="42" x2="42" y1="118.5938" y2="255.125"/></g><g><title>BankingService</title><rect fill="#000000" fill-opacity="0.00000" height="136.5313" width="8" x="294.7959" y="118.5938"/><line style="stroke:#181818;stroke-width:0.5;stroke-dasharray:5,5;" x1="298.5186" x2="298.5186" y1="118.5938" y2="255.125"/></g><g><title>SupabaseClient</title><rect fill="#000000" fill-opacity="0.00000" height="136.5313" width="8" x="636.7544" y="118.5938"/><line style="stroke:#181818;stroke-width:0.5;stroke-dasharray:5,5;" x1="640.1899" x2="640.1899" y1="118.5938" y2="255.125"/></g><g class="participant participant-head" data-participant="Customer"><text fill="#000000" font-family="sans-serif" font-size="14" lengthAdjust="spacing" textLength="68.0039" x="5" y="115.292">Customer</text><ellipse cx="42.002" cy="50.7969" fill="#E2E2F0" rx="8" ry="8" style="stroke:#181818;stroke-width:0.5;"/><path d="M42.002,58.7969 L42.002,85.7969 M29.002,66.7969 L55.002,66.7969 M42.002,85.7969 L29.002,100.7969 M42.002,85.7969 L55.002,100.7969" fill="none" style="stroke:#181818;stroke-width:0.5;"/></g><g class="participant participant-tail" data-participant="Customer"><text fill="#000000" font-family="sans-serif" font-size="14" lengthAdjust="spacing" textLength="68.0039" x="5" y="267.1201">Customer</text><ellipse cx="42.002" cy="278.9219" fill="#E2E2F0" rx="8" ry="8" style="stroke:#181818;stroke-width:0.5;"/><path d="M42.002,286.9219 L42.002,313.9219 M29.002,294.9219 L55.002,294.9219 M42.002,313.9219 L29.002,328.9219 M42.002,313.9219 L55.002,328.9219" fill="none" style="stroke:#181818;stroke-width:0.5;"/></g><g class="participant participant-head" data-participant="BankingService"><rect fill="#E2E2F0" height="30.2969" rx="2.5" ry="2.5" style="stroke:#181818;stroke-width:0.5;" width="122.5547" x="237.5186" y="87.2969"/><text fill="#000000" font-family="sans-serif" font-size="14" lengthAdjust="spacing" textLength="108.5547" x="244.5186" y="107.292">BankingService</text></g><g class="participant participant-tail" data-participant="BankingService"><rect fill="#E2E2F0" height="30.2969" rx="2.5" ry="2.5" style="stroke:#181818;stroke-width:0.5;" width="122.5547" x="237.5186" y="254.125"/><text fill="#000000" font-family="sans-serif" font-size="14" lengthAdjust="spacing" textLength="108.5547" x="244.5186" y="274.1201">BankingService</text></g><g class="participant participant-head" data-participant="SupabaseClient"><rect fill="#E2E2F0" height="30.2969" rx="2.5" ry="2.5" style="stroke:#181818;stroke-width:0.5;" width="123.1289" x="579.1899" y="87.2969"/><text fill="#000000" font-family="sans-serif" font-size="14" lengthAdjust="spacing" textLength="109.1289" x="586.1899" y="107.292">SupabaseClient</text></g><g class="participant participant-tail" data-participant="SupabaseClient"><rect fill="#E2E2F0" height="30.2969" rx="2.5" ry="2.5" style="stroke:#181818;stroke-width:0.5;" width="123.1289" x="579.1899" y="254.125"/><text fill="#000000" font-family="sans-serif" font-size="14" lengthAdjust="spacing" textLength="109.1289" x="586.1899" y="274.1201">SupabaseClient</text></g><g><title>BankingService</title><rect fill="#FFFFFF" height="87.3984" style="stroke:#181818;stroke-width:1;" width="10" x="293.7959" y="149.7266"/></g><g><title>SupabaseClient</title><rect fill="#FFFFFF" height="29.1328" style="stroke:#181818;stroke-width:1;" width="10" x="635.7544" y="178.8594"/></g><g class="message" data-participant-1="Customer" data-participant-2="BankingService"><polygon fill="#181818" points="281.7959,145.7266,291.7959,149.7266,281.7959,153.7266,285.7959,149.7266" style="stroke:#181818;stroke-width:1;"/><line style="stroke:#181818;stroke-width:1;" x1="42.002" x2="287.7959" y1="149.7266" y2="149.7266"/><text fill="#000000" font-family="sans-serif" font-size="13" lengthAdjust="spacing" textLength="232.7939" x="49.002" y="144.6606">get_transaction_history(account_id)</text></g><g class="message" data-participant-1="BankingService" data-participant-2="SupabaseClient"><polygon fill="#181818" points="623.7544,174.8594,633.7544,178.8594,623.7544,182.8594,627.7544,178.8594" style="stroke:#181818;stroke-width:1;"/><line style="stroke:#181818;stroke-width:1;" x1="303.7959" x2="629.7544" y1="178.8594" y2="178.8594"/><text fill="#000000" font-family="sans-serif" font-size="13" lengthAdjust="spacing" textLength="312.9585" x="310.7959" y="173.7935">select * from transactions where account_id = ?</text></g><g class="message" data-participant-1="SupabaseClient" data-participant-2="BankingService"><polygon fill="#181818" points="314.7959,203.9922,304.7959,207.9922,314.7959,211.9922,310.7959,207.9922" style="stroke:#181818;stroke-width:1;"/><line style="stroke:#181818;stroke-width:1;stroke-dasharray:2,2;" x1="308.7959" x2="639.7544" y1="207.9922" y2="207.9922"/><text fill="#000000" font-family="sans-serif" font-size="13" lengthAdjust="spacing" textLength="120.0977" x="320.7959" y="202.9263">list of transactions</text></g><g class="message" data-participant-1="BankingService" data-participant-2="Customer"><polygon fill="#181818" points="53.002,233.125,43.002,237.125,53.002,241.125,49.002,237.125" style="stroke:#181818;stroke-width:1;"/><line style="stroke:#181818;stroke-width:1;stroke-dasharray:2,2;" x1="47.002" x2="297.7959" y1="237.125" y2="237.125"/><text fill="#000000" font-family="sans-serif" font-size="13" lengthAdjust="spacing" textLength="172.5737" x="59.002" y="232.0591">display transaction history</text></g><!--SRC=[TT3FJiCm30RmUvxYEm9INw3Ic4Htu5wqQsLIhxMM9YDnD-tjoRH1_mXkbcB_FiSgwXXxuGi-8lb4LYLul4lI4A-e-MjaRnaxeIxIO4nk217LcDy7ZiRyL2XUyKR-ABwhEPubpvJeM1kTsAQ_iqzaRHYzDj8-tq0va_9gsgompDVZYJufSUM4lMO-iMEhUC4XXW6pe8HBpv4nvM23xHIrbCmABlxwYikh8nmMAQRb_yZrzfdylLI9LjB9qNMEuN6RkRb4lW40]--></g></svg>