<svg xmlns="http://www.w3.org/2000/svg" xmlns:xlink="http://www.w3.org/1999/xlink" contentStyleType="text/css" data-diagram-type="CLASS" height="621px" preserveAspectRatio="none" style="width:1362px;height:621px;background:#DDDDDD;" version="1.1" viewBox="0 0 1362 621" width="1362px" zoomAndPan="magnify"><defs/><g><rect fill="#DDDDDD" height="621" style="stroke:none;stroke-width:1;" width="1362" x="0" y="0"/><!--class User--><g class="entity" data-entity="User" data-source-line="4" data-uid="ent0002" id="entity_User"><rect fill="#F1F1F1" height="145.7813" rx="3.5" ry="3.5" style="stroke:#181818;stroke-width:0.5;" width="259.126" x="7" y="7"/><ellipse cx="116.3579" cy="23" fill="#ADD1B2" rx="11" ry="11" style="stroke:#181818;stroke-width:1;"/><path d="M119.3267,28.6406 Q118.7485,28.9375 118.1079,29.0781 Q117.4673,29.2344 116.7642,29.2344 Q114.2642,29.2344 112.936,27.5938 Q111.6235,25.9375 111.6235,22.8125 Q111.6235,19.6875 112.936,18.0313 Q114.2642,16.375 116.7642,16.375 Q117.4673,16.375 118.1079,16.5313 Q118.7642,16.6875 119.3267,16.9844 L119.3267,19.7031 Q118.7017,19.125 118.1079,18.8594 Q117.5142,18.5781 116.8892,18.5781 Q115.5454,18.5781 114.8579,19.6563 Q114.1704,20.7188 114.1704,22.8125 Q114.1704,24.9063 114.8579,25.9844 Q115.5454,27.0469 116.8892,27.0469 Q117.5142,27.0469 118.1079,26.7813 Q118.7017,26.5 119.3267,25.9219 L119.3267,28.6406 Z " fill="#000000"/><text fill="#000000" font-family="sans-serif" font-size="14" lengthAdjust="spacing" textLength="31.9102" x="136.8579" y="27.8467">User</text><line style="stroke:#181818;stroke-width:0.5;" x1="8" x2="265.126" y1="39" y2="39"/><ellipse cx="18" cy="52.6484" fill="none" rx="3" ry="3" style="stroke:#038048;stroke-width:1;"/><text fill="#000000" font-family="sans-serif" font-size="14" lengthAdjust="spacing" textLength="44.9326" x="27" y="55.9951">id : str</text><ellipse cx="18" cy="68.9453" fill="none" rx="3" ry="3" style="stroke:#038048;stroke-width:1;"/><text fill="#000000" font-family="sans-serif" font-size="14" lengthAdjust="spacing" textLength="71.8594" x="27" y="72.292">name : str</text><ellipse cx="18" cy="85.2422" fill="none" rx="3" ry="3" style="stroke:#038048;stroke-width:1;"/><text fill="#000000" font-family="sans-serif" font-size="14" lengthAdjust="spacing" textLength="70.7656" x="27" y="88.5889">email : str</text><line style="stroke:#181818;stroke-width:0.5;" x1="8" x2="265.126" y1="95.8906" y2="95.8906"/><ellipse cx="18" cy="109.5391" fill="#84BE84" rx="3" ry="3" style="stroke:#038048;stroke-width:1;"/><text fill="#000000" font-family="sans-serif" font-size="14" lengthAdjust="spacing" textLength="233.126" x="27" y="112.8857">role : str ("customer" or "admin")</text><ellipse cx="18" cy="125.8359" fill="#84BE84" rx="3" ry="3" style="stroke:#038048;stroke-width:1;"/><text fill="#000000" font-family="sans-serif" font-size="14" lengthAdjust="spacing" textLength="99.9824" x="27" y="129.1826">authenticate()</text><ellipse cx="18" cy="142.1328" fill="#84BE84" rx="3" ry="3" style="stroke:#038048;stroke-width:1;"/><text fill="#000000" font-family="sans-serif" font-size="14" lengthAdjust="spacing" textLength="222.3047" x="27" y="145.4795">get_accounts() : List&lt;Account&gt;</text></g><!--class Account--><g class="entity" data-entity="Account" data-source-line="13" data-uid="ent0003" id="entity_Account"><rect fill="#F1F1F1" height="162.0781" rx="3.5" ry="3.5" style="stroke:#181818;stroke-width:0.5;" width="260.7188" x="251.2" y="229.78"/><ellipse cx="348.9231" cy="245.78" fill="#A9DCDF" rx="11" ry="11" style="stroke:#181818;stroke-width:1;"/><path d="M349.0325,241.1237 L347.8763,246.2019 L350.2044,246.2019 L349.0325,241.1237 Z M347.5481,238.8894 L350.5325,238.8894 L353.8919,251.28 L351.4388,251.28 L350.6731,248.2175 L347.3919,248.2175 L346.6419,251.28 L344.2044,251.28 L347.5481,238.8894 Z " fill="#000000"/><text fill="#000000" font-family="sans-serif" font-size="14" font-style="italic" lengthAdjust="spacing" textLength="56.7725" x="369.4231" y="250.6267">Account</text><line style="stroke:#181818;stroke-width:0.5;" x1="252.2" x2="510.9188" y1="261.78" y2="261.78"/><polygon fill="none" points="262.2,270.4284,266.2,274.4284,262.2,278.4284,258.2,274.4284" style="stroke:#B38D22;stroke-width:1;"/><text fill="#000000" font-family="sans-serif" font-size="14" lengthAdjust="spacing" textLength="44.9326" x="271.2" y="278.7751">id : str</text><polygon fill="none" points="262.2,286.7253,266.2,290.7253,262.2,294.7253,258.2,290.7253" style="stroke:#B38D22;stroke-width:1;"/><text fill="#000000" font-family="sans-serif" font-size="14" lengthAdjust="spacing" textLength="82.4688" x="271.2" y="295.072">user_id : str</text><polygon fill="none" points="262.2,303.0222,266.2,307.0222,262.2,311.0222,258.2,307.0222" style="stroke:#B38D22;stroke-width:1;"/><text fill="#000000" font-family="sans-serif" font-size="14" lengthAdjust="spacing" textLength="100.1875" x="271.2" y="311.3689">balance : float</text><polygon fill="none" points="262.2,319.3191,266.2,323.3191,262.2,327.3191,258.2,323.3191" style="stroke:#B38D22;stroke-width:1;"/><text fill="#000000" font-family="sans-serif" font-size="14" lengthAdjust="spacing" textLength="230.0771" x="271.2" y="327.6657">transactions : List&lt;Transaction&gt;</text><line style="stroke:#181818;stroke-width:0.5;" x1="252.2" x2="510.9188" y1="334.9675" y2="334.9675"/><ellipse cx="262.2" cy="348.6159" fill="#84BE84" rx="3" ry="3" style="stroke:#038048;stroke-width:1;"/><text fill="#000000" font-family="sans-serif" font-size="14" lengthAdjust="spacing" textLength="116.5664" x="271.2" y="351.9626">deposit(amount)</text><ellipse cx="262.2" cy="364.9128" fill="#84BE84" rx="3" ry="3" style="stroke:#038048;stroke-width:1;"/><text fill="#000000" font-family="sans-serif" font-size="14" lengthAdjust="spacing" textLength="129.3154" x="271.2" y="368.2595">withdraw(amount)</text><ellipse cx="262.2" cy="381.2097" fill="#84BE84" rx="3" ry="3" style="stroke:#038048;stroke-width:1;"/><text fill="#000000" font-family="sans-serif" font-size="14" lengthAdjust="spacing" textLength="234.7188" x="271.2" y="384.5564">transfer(target_account, amount)</text></g><!--class SavingsAccount--><g class="entity" data-entity="SavingsAccount" data-source-line="23" data-uid="ent0004" id="entity_SavingsAccount"><rect fill="#F1F1F1" height="80.5938" rx="3.5" ry="3.5" style="stroke:#181818;stroke-width:0.5;" width="160.5244" x="301.3" y="39.59"/><ellipse cx="323.9759" cy="55.59" fill="#ADD1B2" rx="11" ry="11" style="stroke:#181818;stroke-width:1;"/><path d="M326.9447,61.2306 Q326.3666,61.5275 325.7259,61.6681 Q325.0853,61.8244 324.3822,61.8244 Q321.8822,61.8244 320.5541,60.1838 Q319.2416,58.5275 319.2416,55.4025 Q319.2416,52.2775 320.5541,50.6213 Q321.8822,48.965 324.3822,48.965 Q325.0853,48.965 325.7259,49.1213 Q326.3822,49.2775 326.9447,49.5744 L326.9447,52.2931 Q326.3197,51.715 325.7259,51.4494 Q325.1322,51.1681 324.5072,51.1681 Q323.1634,51.1681 322.4759,52.2463 Q321.7884,53.3088 321.7884,55.4025 Q321.7884,57.4963 322.4759,58.5744 Q323.1634,59.6369 324.5072,59.6369 Q325.1322,59.6369 325.7259,59.3713 Q326.3197,59.09 326.9447,58.5119 L326.9447,61.2306 Z " fill="#000000"/><text fill="#000000" font-family="sans-serif" font-size="14" lengthAdjust="spacing" textLength="111.4668" x="339.6817" y="60.4367">SavingsAccount</text><line style="stroke:#181818;stroke-width:0.5;" x1="302.3" x2="460.8244" y1="71.59" y2="71.59"/><ellipse cx="312.3" cy="85.2384" fill="none" rx="3" ry="3" style="stroke:#038048;stroke-width:1;"/><text fill="#000000" font-family="sans-serif" font-size="14" lengthAdjust="spacing" textLength="134.5244" x="321.3" y="88.5851">interest_rate : float</text><line style="stroke:#181818;stroke-width:0.5;" x1="302.3" x2="460.8244" y1="95.8869" y2="95.8869"/><ellipse cx="312.3" cy="109.5353" fill="#84BE84" rx="3" ry="3" style="stroke:#038048;stroke-width:1;"/><text fill="#000000" font-family="sans-serif" font-size="14" lengthAdjust="spacing" textLength="110.4688" x="321.3" y="112.882">apply_interest()</text></g><!--class CheckingAccount--><g class="entity" data-entity="CheckingAccount" data-source-line="28" data-uid="ent0005" id="entity_CheckingAccount"><rect fill="#F1F1F1" height="80.5938" rx="3.5" ry="3.5" style="stroke:#181818;stroke-width:0.5;" width="203.7891" x="496.67" y="39.59"/><ellipse cx="534.3054" cy="55.59" fill="#ADD1B2" rx="11" ry="11" style="stroke:#181818;stroke-width:1;"/><path d="M537.2741,61.2306 Q536.696,61.5275 536.0554,61.6681 Q535.4147,61.8244 534.7116,61.8244 Q532.2116,61.8244 530.8835,60.1838 Q529.571,58.5275 529.571,55.4025 Q529.571,52.2775 530.8835,50.6213 Q532.2116,48.965 534.7116,48.965 Q535.4147,48.965 536.0554,49.1213 Q536.7116,49.2775 537.2741,49.5744 L537.2741,52.2931 Q536.6491,51.715 536.0554,51.4494 Q535.4616,51.1681 534.8366,51.1681 Q533.4929,51.1681 532.8054,52.2463 Q532.1179,53.3088 532.1179,55.4025 Q532.1179,57.4963 532.8054,58.5744 Q533.4929,59.6369 534.8366,59.6369 Q535.4616,59.6369 536.0554,59.3713 Q536.6491,59.09 537.2741,58.5119 L537.2741,61.2306 Z " fill="#000000"/><text fill="#000000" font-family="sans-serif" font-size="14" lengthAdjust="spacing" textLength="121.4883" x="553.3354" y="60.4367">CheckingAccount</text><line style="stroke:#181818;stroke-width:0.5;" x1="497.67" x2="699.4591" y1="71.59" y2="71.59"/><ellipse cx="507.67" cy="85.2384" fill="none" rx="3" ry="3" style="stroke:#038048;stroke-width:1;"/><text fill="#000000" font-family="sans-serif" font-size="14" lengthAdjust="spacing" textLength="147.7246" x="516.67" y="88.5851">overdraft_limit : float</text><line style="stroke:#181818;stroke-width:0.5;" x1="497.67" x2="699.4591" y1="95.8869" y2="95.8869"/><ellipse cx="507.67" cy="109.5353" fill="#84BE84" rx="3" ry="3" style="stroke:#038048;stroke-width:1;"/><text fill="#000000" font-family="sans-serif" font-size="14" lengthAdjust="spacing" textLength="177.7891" x="516.67" y="112.882">check_overdraft(amount)</text></g><!--class Transaction--><g class="entity" data-entity="Transaction" data-source-line="33" data-uid="ent0006" id="entity_Transaction"><rect fill="#F1F1F1" height="145.7813" rx="3.5" ry="3.5" style="stroke:#181818;stroke-width:0.5;" width="344.999" x="209.06" y="468.86"/><ellipse cx="336.2358" cy="484.86" fill="#ADD1B2" rx="11" ry="11" style="stroke:#181818;stroke-width:1;"/><path d="M339.2045,490.5006 Q338.6264,490.7975 337.9858,490.9381 Q337.3452,491.0944 336.642,491.0944 Q334.142,491.0944 332.8139,489.4538 Q331.5014,487.7975 331.5014,484.6725 Q331.5014,481.5475 332.8139,479.8913 Q334.142,478.235 336.642,478.235 Q337.3452,478.235 337.9858,478.3913 Q338.642,478.5475 339.2045,478.8444 L339.2045,481.5631 Q338.5795,480.985 337.9858,480.7194 Q337.392,480.4381 336.767,480.4381 Q335.4233,480.4381 334.7358,481.5163 Q334.0483,482.5788 334.0483,484.6725 Q334.0483,486.7663 334.7358,487.8444 Q335.4233,488.9069 336.767,488.9069 Q337.392,488.9069 337.9858,488.6413 Q338.5795,488.36 339.2045,487.7819 L339.2045,490.5006 Z " fill="#000000"/><text fill="#000000" font-family="sans-serif" font-size="14" lengthAdjust="spacing" textLength="82.1475" x="356.7358" y="489.7067">Transaction</text><line style="stroke:#181818;stroke-width:0.5;" x1="210.06" x2="553.059" y1="500.86" y2="500.86"/><ellipse cx="220.06" cy="514.5084" fill="none" rx="3" ry="3" style="stroke:#038048;stroke-width:1;"/><text fill="#000000" font-family="sans-serif" font-size="14" lengthAdjust="spacing" textLength="44.9326" x="229.06" y="517.8551">id : str</text><ellipse cx="220.06" cy="530.8053" fill="none" rx="3" ry="3" style="stroke:#038048;stroke-width:1;"/><text fill="#000000" font-family="sans-serif" font-size="14" lengthAdjust="spacing" textLength="107.707" x="229.06" y="534.152">account_id : str</text><ellipse cx="220.06" cy="547.1022" fill="none" rx="3" ry="3" style="stroke:#038048;stroke-width:1;"/><text fill="#000000" font-family="sans-serif" font-size="14" lengthAdjust="spacing" textLength="99.0869" x="229.06" y="550.4489">amount : float</text><ellipse cx="220.06" cy="563.3991" fill="none" rx="3" ry="3" style="stroke:#038048;stroke-width:1;"/><text fill="#000000" font-family="sans-serif" font-size="14" lengthAdjust="spacing" textLength="152.332" x="229.06" y="566.7457">timestamp : datetime</text><ellipse cx="220.06" cy="579.6959" fill="none" rx="3" ry="3" style="stroke:#038048;stroke-width:1;"/><text fill="#000000" font-family="sans-serif" font-size="14" lengthAdjust="spacing" textLength="109.9971" x="229.06" y="583.0426">description : str</text><line style="stroke:#181818;stroke-width:0.5;" x1="210.06" x2="553.059" y1="590.3444" y2="590.3444"/><ellipse cx="220.06" cy="603.9928" fill="#84BE84" rx="3" ry="3" style="stroke:#038048;stroke-width:1;"/><text fill="#000000" font-family="sans-serif" font-size="14" lengthAdjust="spacing" textLength="318.999" x="229.06" y="607.3395">type : str ("deposit", "withdrawal", "transfer")</text></g><!--class AuthService--><g class="entity" data-entity="AuthService" data-source-line="42" data-uid="ent0007" id="entity_AuthService"><rect fill="#F1F1F1" height="96.8906" rx="3.5" ry="3.5" style="stroke:#181818;stroke-width:0.5;" width="205.4434" x="735.84" y="31.44"/><ellipse cx="792.0348" cy="47.44" fill="#ADD1B2" rx="11" ry="11" style="stroke:#181818;stroke-width:1;"/><path d="M795.0036,53.0806 Q794.4254,53.3775 793.7848,53.5181 Q793.1442,53.6744 792.4411,53.6744 Q789.9411,53.6744 788.6129,52.0337 Q787.3004,50.3775 787.3004,47.2525 Q787.3004,44.1275 788.6129,42.4712 Q789.9411,40.815 792.4411,40.815 Q793.1442,40.815 793.7848,40.9712 Q794.4411,41.1275 795.0036,41.4244 L795.0036,44.1431 Q794.3786,43.565 793.7848,43.2994 Q793.1911,43.0181 792.5661,43.0181 Q791.2223,43.0181 790.5348,44.0962 Q789.8473,45.1587 789.8473,47.2525 Q789.8473,49.3462 790.5348,50.4244 Q791.2223,51.4869 792.5661,51.4869 Q793.1911,51.4869 793.7848,51.2212 Q794.3786,50.94 795.0036,50.3619 L795.0036,53.0806 Z " fill="#000000"/><text fill="#000000" font-family="sans-serif" font-size="14" lengthAdjust="spacing" textLength="84.5537" x="812.5348" y="52.2867">AuthService</text><line style="stroke:#181818;stroke-width:0.5;" x1="736.84" x2="940.2834" y1="63.44" y2="63.44"/><line style="stroke:#181818;stroke-width:0.5;" x1="736.84" x2="940.2834" y1="71.44" y2="71.44"/><ellipse cx="746.84" cy="85.0884" fill="#84BE84" rx="3" ry="3" style="stroke:#038048;stroke-width:1;"/><text fill="#000000" font-family="sans-serif" font-size="14" lengthAdjust="spacing" textLength="179.4434" x="755.84" y="88.4351">register(email, password)</text><ellipse cx="746.84" cy="101.3853" fill="#84BE84" rx="3" ry="3" style="stroke:#038048;stroke-width:1;"/><text fill="#000000" font-family="sans-serif" font-size="14" lengthAdjust="spacing" textLength="159.25" x="755.84" y="104.732">login(email, password)</text><ellipse cx="746.84" cy="117.6822" fill="#84BE84" rx="3" ry="3" style="stroke:#038048;stroke-width:1;"/><text fill="#000000" font-family="sans-serif" font-size="14" lengthAdjust="spacing" textLength="55.1934" x="755.84" y="121.0289">logout()</text></g><!--class BankingService--><g class="entity" data-entity="BankingService" data-source-line="48" data-uid="ent0008" id="entity_BankingService"><rect fill="#F1F1F1" height="113.1875" rx="3.5" ry="3.5" style="stroke:#181818;stroke-width:0.5;" width="379.1924" x="975.97" y="23.3"/><ellipse cx="1107.0388" cy="39.3" fill="#ADD1B2" rx="11" ry="11" style="stroke:#181818;stroke-width:1;"/><path d="M1110.0076,44.9406 Q1109.4295,45.2375 1108.7888,45.3781 Q1108.1482,45.5344 1107.4451,45.5344 Q1104.9451,45.5344 1103.617,43.8937 Q1102.3045,42.2375 1102.3045,39.1125 Q1102.3045,35.9875 1103.617,34.3312 Q1104.9451,32.675 1107.4451,32.675 Q1108.1482,32.675 1108.7888,32.8312 Q1109.4451,32.9875 1110.0076,33.2844 L1110.0076,36.0031 Q1109.3826,35.425 1108.7888,35.1594 Q1108.1951,34.8781 1107.5701,34.8781 Q1106.2263,34.8781 1105.5388,35.9562 Q1104.8513,37.0187 1104.8513,39.1125 Q1104.8513,41.2062 1105.5388,42.2844 Q1106.2263,43.3469 1107.5701,43.3469 Q1108.1951,43.3469 1108.7888,43.0812 Q1109.3826,42.8 1110.0076,42.2219 L1110.0076,44.9406 Z " fill="#000000"/><text fill="#000000" font-family="sans-serif" font-size="14" lengthAdjust="spacing" textLength="108.5547" x="1127.5388" y="44.1467">BankingService</text><line style="stroke:#181818;stroke-width:0.5;" x1="976.97" x2="1354.1624" y1="55.3" y2="55.3"/><line style="stroke:#181818;stroke-width:0.5;" x1="976.97" x2="1354.1624" y1="63.3" y2="63.3"/><ellipse cx="986.97" cy="76.9484" fill="#84BE84" rx="3" ry="3" style="stroke:#038048;stroke-width:1;"/><text fill="#000000" font-family="sans-serif" font-size="14" lengthAdjust="spacing" textLength="251.9316" x="995.97" y="80.2951">create_account(user, account_type)</text><ellipse cx="986.97" cy="93.2453" fill="#84BE84" rx="3" ry="3" style="stroke:#038048;stroke-width:1;"/><text fill="#000000" font-family="sans-serif" font-size="14" lengthAdjust="spacing" textLength="312.0195" x="995.97" y="96.592">perform_transaction(account, type, amount)</text><ellipse cx="986.97" cy="109.5422" fill="#84BE84" rx="3" ry="3" style="stroke:#038048;stroke-width:1;"/><text fill="#000000" font-family="sans-serif" font-size="14" lengthAdjust="spacing" textLength="353.1924" x="995.97" y="112.8889">transfer(source_account, target_account, amount)</text><ellipse cx="986.97" cy="125.8391" fill="#84BE84" rx="3" ry="3" style="stroke:#038048;stroke-width:1;"/><text fill="#000000" font-family="sans-serif" font-size="14" lengthAdjust="spacing" textLength="230.9248" x="995.97" y="129.1857">get_transaction_history(account)</text></g><!--class SupabaseClient--><g class="entity" data-entity="SupabaseClient" data-source-line="55" data-uid="ent0009" id="entity_SupabaseClient"><rect fill="#F1F1F1" height="113.1875" rx="3.5" ry="3.5" style="stroke:#181818;stroke-width:0.5;" width="165.248" x="919.94" y="254.23"/><ellipse cx="945.7936" cy="270.23" fill="#ADD1B2" rx="11" ry="11" style="stroke:#181818;stroke-width:1;"/><path d="M948.7624,275.8706 Q948.1842,276.1675 947.5436,276.3081 Q946.903,276.4644 946.1999,276.4644 Q943.6999,276.4644 942.3717,274.8237 Q941.0592,273.1675 941.0592,270.0425 Q941.0592,266.9175 942.3717,265.2612 Q943.6999,263.605 946.1999,263.605 Q946.903,263.605 947.5436,263.7612 Q948.1999,263.9175 948.7624,264.2144 L948.7624,266.9331 Q948.1374,266.355 947.5436,266.0894 Q946.9499,265.8081 946.3249,265.8081 Q944.9811,265.8081 944.2936,266.8862 Q943.6061,267.9487 943.6061,270.0425 Q943.6061,272.1362 944.2936,273.2144 Q944.9811,274.2769 946.3249,274.2769 Q946.9499,274.2769 947.5436,274.0112 Q948.1374,273.73 948.7624,273.1519 L948.7624,275.8706 Z " fill="#000000"/><text fill="#000000" font-family="sans-serif" font-size="14" lengthAdjust="spacing" textLength="109.1289" x="962.2055" y="275.0767">SupabaseClient</text><line style="stroke:#181818;stroke-width:0.5;" x1="920.94" x2="1084.188" y1="286.23" y2="286.23"/><line style="stroke:#181818;stroke-width:0.5;" x1="920.94" x2="1084.188" y1="294.23" y2="294.23"/><ellipse cx="930.94" cy="307.8784" fill="#84BE84" rx="3" ry="3" style="stroke:#038048;stroke-width:1;"/><text fill="#000000" font-family="sans-serif" font-size="14" lengthAdjust="spacing" textLength="126.7314" x="939.94" y="311.2251">insert(table, data)</text><ellipse cx="930.94" cy="324.1753" fill="#84BE84" rx="3" ry="3" style="stroke:#038048;stroke-width:1;"/><text fill="#000000" font-family="sans-serif" font-size="14" lengthAdjust="spacing" textLength="136.7393" x="939.94" y="327.522">select(table, filters)</text><ellipse cx="930.94" cy="340.4722" fill="#84BE84" rx="3" ry="3" style="stroke:#038048;stroke-width:1;"/><text fill="#000000" font-family="sans-serif" font-size="14" lengthAdjust="spacing" textLength="136.1445" x="939.94" y="343.8189">update(table, data)</text><ellipse cx="930.94" cy="356.7691" fill="#84BE84" rx="3" ry="3" style="stroke:#038048;stroke-width:1;"/><text fill="#000000" font-family="sans-serif" font-size="14" lengthAdjust="spacing" textLength="139.248" x="939.94" y="360.1157">delete(table, filters)</text></g><!--link SavingsAccount to Account--><g class="link" data-entity-1="SavingsAccount" data-entity-2="Account" data-source-line="63" data-uid="lnk10" id="link_SavingsAccount_Account"><path codeLine="63" d="M381.56,120.51 C381.56,150.45 381.56,174.57 381.56,211.48" fill="none" id="SavingsAccount-to-Account" style="stroke:#454645;stroke-width:1;"/><polygon fill="none" points="381.56,229.48,387.56,211.48,375.56,211.48,381.56,229.48" style="stroke:#454645;stroke-width:1;"/></g><!--link CheckingAccount to Account--><g class="link" data-entity-1="CheckingAccount" data-entity-2="Account" data-source-line="64" data-uid="lnk11" id="link_CheckingAccount_Account"><path codeLine="64" d="M561.01,120.51 C532.63,150.45 505.0818,179.5051 470.1018,216.4151" fill="none" id="CheckingAccount-to-Account" style="stroke:#454645;stroke-width:1;"/><polygon fill="none" points="457.72,229.48,474.4567,220.5423,465.7468,212.2878,457.72,229.48" style="stroke:#454645;stroke-width:1;"/></g><!--reverse link User to Account--><g class="link" data-entity-1="User" data-entity-2="Account" data-source-line="67" data-uid="lnk12" id="link_User_Account"><path codeLine="67" d="M222.516,161.2049 C248.456,185.4549 268.8,204.45 295.4,229.3" fill="none" id="User-backto-Account" style="stroke:#454645;stroke-width:1;"/><polygon fill="#454645" points="213.75,153.01,215.4014,160.0295,222.516,161.2049,220.8647,154.1855,213.75,153.01" style="stroke:#454645;stroke-width:1;"/><text fill="#000000" font-family="sans-serif" font-size="13" lengthAdjust="spacing" textLength="33.5981" x="260.56" y="195.8469">owns</text><text fill="#000000" font-family="sans-serif" font-size="13" lengthAdjust="spacing" textLength="8.271" x="212.7386" y="172.7673">1</text><text fill="#000000" font-family="sans-serif" font-size="13" lengthAdjust="spacing" textLength="23.0356" x="264.0089" y="218.7225">1..*</text></g><!--reverse link Account to Transaction--><g class="link" data-entity-1="Account" data-entity-2="Transaction" data-source-line="68" data-uid="lnk13" id="link_Account_Transaction"><path codeLine="68" d="M381.56,404.21 C381.56,429.08 381.56,444.3 381.56,468.57" fill="none" id="Account-backto-Transaction" style="stroke:#454645;stroke-width:1;"/><polygon fill="#454645" points="381.56,392.21,377.56,398.21,381.56,404.21,385.56,398.21,381.56,392.21" style="stroke:#454645;stroke-width:1;"/><text fill="#000000" font-family="sans-serif" font-size="13" lengthAdjust="spacing" textLength="26.5903" x="382.56" y="434.9269">logs</text><text fill="#000000" font-family="sans-serif" font-size="13" lengthAdjust="spacing" textLength="8.271" x="373.2279" y="411.9217">1</text><text fill="#000000" font-family="sans-serif" font-size="13" lengthAdjust="spacing" textLength="23.0356" x="357.4298" y="457.7014">1..*</text></g><!--link BankingService to SupabaseClient--><g class="link" data-entity-1="BankingService" data-entity-2="SupabaseClient" data-source-line="69" data-uid="lnk14" id="link_BankingService_SupabaseClient"><path codeLine="69" d="M1125.69,136.89 C1100.34,172.5 1071.1204,213.5426 1045.7904,249.1126" fill="none" id="BankingService-to-SupabaseClient" style="stroke:#454645;stroke-width:1;stroke-dasharray:7,7;"/><polygon fill="#454645" points="1042.31,254,1050.7889,248.9892,1045.2103,249.9272,1044.2723,244.3486,1042.31,254" style="stroke:#454645;stroke-width:1;"/><text fill="#000000" font-family="sans-serif" font-size="13" lengthAdjust="spacing" textLength="29.7832" x="1090.56" y="195.8469">uses</text></g><!--link AuthService to SupabaseClient--><g class="link" data-entity-1="AuthService" data-entity-2="SupabaseClient" data-source-line="70" data-uid="lnk15" id="link_AuthService_SupabaseClient"><path codeLine="70" d="M872.74,128.6 C898.93,165.16 931.6355,210.8127 959.1555,249.2227" fill="none" id="AuthService-to-SupabaseClient" style="stroke:#454645;stroke-width:1;stroke-dasharray:7,7;"/><polygon fill="#454645" points="962.65,254.1,960.6598,244.4543,959.7379,250.0356,954.1567,249.1137,962.65,254.1" style="stroke:#454645;stroke-width:1;"/><text fill="#000000" font-family="sans-serif" font-size="13" lengthAdjust="spacing" textLength="29.7832" x="921.56" y="195.8469">uses</text></g><!--SRC=[TLJBRjim4BphArW5GPNKDj2hKHX8SogGKzAUXJMrjeXG9B6aOXXj_hrBoPGf9pu9- -3iS7QeBw753aMmnyA_AkE0e1C4vhLH99wUYq9gy5xyyKZYRo74Dw4QiHO-q10OuCFd43jGEel9wbDPLANiVR0TKYaiYHAQJfdoRcY3dbcOe2G4hCRK7aCDKjhU15_TCSQJyk77mvZP5Ez50Lk61Hd4oF1K6aZUv2HlHC_awrbc2ngCZDHssa8OSWncFECfQtoQz_kSsmoq6dJMgr115uUDL0ygj0t1OPOSq7P8LG3Axh8GgUazIVi2RyhiVSwVHJO12NseYIN9QB9MpkbZdUfL1lJOekGLxkT8zWs9sUr2hLMdmWnBnXFrr55zu9RT_xFjdovLpvBXwCuxF-bLBaIPP08TewHFSi0mUKOkg8ul29tZRCCgnFYq0oz9kO7KE7RY-y16Ua5wKxpRaI_XdXV9UnYikH2EsmwMcd6ijdjbhfPiFzFt9xyAbdUEBmcPMrfl5Qssc7I9Kene3cbdgQiparMJ9MBRsHWpztZRayIpUwwvAJsP3Bzk-UAMZcbERhdUmHOyFcg5cUMOUs2_RZMpOSLXXFMeKKxvdTAifXzBlOkB-NYauIFd_7I4vtyLjxVYbscHL8WliBXm_tBvRvEUSd5fw5bnX7f63SEBRPNpnV2NAh-NudwvvEzgTLzE_uMri0VZYnHUTEL6NyVT- -9YtQlLvbAtTVopC6HckgjT_m40]--></g></svg>